<?xml version="1.0" encoding="utf-8" standalone="no"?>
<!DOCTYPE svg PUBLIC "-//W3C//DTD SVG 1.1//EN"
  "http://www.w3.org/Graphics/SVG/1.1/DTD/svg11.dtd">
<svg xmlns:xlink="http://www.w3.org/1999/xlink" width="856.801875pt" height="280.065469pt" viewBox="0 0 856.801875 280.065469" xmlns="http://www.w3.org/2000/svg" version="1.1">
 <metadata>
  <rdf:RDF xmlns:dc="http://purl.org/dc/elements/1.1/" xmlns:cc="http://creativecommons.org/ns#" xmlns:rdf="http://www.w3.org/1999/02/22-rdf-syntax-ns#">
   <cc:Work>
    <dc:type rdf:resource="http://purl.org/dc/dcmitype/StillImage"/>
    <dc:date>2026-04-24T22:05:03.408083</dc:date>
    <dc:format>image/svg+xml</dc:format>
    <dc:creator>
     <cc:Agent>
      <dc:title>Matplotlib v3.9.4, https://matplotlib.org/</dc:title>
     </cc:Agent>
    </dc:creator>
   </cc:Work>
  </rdf:RDF>
 </metadata>
 <defs>
  <style type="text/css">*{stroke-linejoin: round; stroke-linecap: butt}</style>
 </defs>
 <g id="figure_1">
  <g id="patch_1">
   <path d="M 0 280.065469 
L 856.801875 280.065469 
L 856.801875 0 
L 0 0 
z
" style="fill: #ffffff"/>
  </g>
  <g id="axes_1">
   <g id="patch_2">
    <path d="M 63.561875 238.637969 
L 423.001875 238.637969 
L 423.001875 23.077969 
L 63.561875 23.077969 
z
" style="fill: #ffffff"/>
   </g>
   <g id="matplotlib.axis_1">
    <g id="xtick_1">
     <g id="line2d_1">
      <defs>
       <path id="m05f8e4eeb9" d="M 0 0 
L 0 3.5 
" style="stroke: #000000; stroke-width: 0.8"/>
      </defs>
      <g>
       <use xlink:href="#m05f8e4eeb9" x="100.322784" y="238.637969" style="stroke: #000000; stroke-width: 0.8"/>
      </g>
     </g>
     <g id="text_1">
      <!-- 4 -->
      <g transform="translate(97.141534 253.236406) scale(0.1 -0.1)">
       <defs>
        <path id="DejaVuSans-34" d="M 2419 4116 
L 825 1625 
L 2419 1625 
L 2419 4116 
z
M 2253 4666 
L 3047 4666 
L 3047 1625 
L 3713 1625 
L 3713 1100 
L 3047 1100 
L 3047 0 
L 2419 0 
L 2419 1100 
L 313 1100 
L 313 1709 
L 2253 4666 
z
" transform="scale(0.015625)"/>
       </defs>
       <use xlink:href="#DejaVuSans-34"/>
      </g>
     </g>
    </g>
    <g id="xtick_2">
     <g id="line2d_2">
      <g>
       <use xlink:href="#m05f8e4eeb9" x="141.168239" y="238.637969" style="stroke: #000000; stroke-width: 0.8"/>
      </g>
     </g>
     <g id="text_2">
      <!-- 6 -->
      <g transform="translate(137.986989 253.236406) scale(0.1 -0.1)">
       <defs>
        <path id="DejaVuSans-36" d="M 2113 2584 
Q 1688 2584 1439 2293 
Q 1191 2003 1191 1497 
Q 1191 994 1439 701 
Q 1688 409 2113 409 
Q 2538 409 2786 701 
Q 3034 994 3034 1497 
Q 3034 2003 2786 2293 
Q 2538 2584 2113 2584 
z
M 3366 4563 
L 3366 3988 
Q 3128 4100 2886 4159 
Q 2644 4219 2406 4219 
Q 1781 4219 1451 3797 
Q 1122 3375 1075 2522 
Q 1259 2794 1537 2939 
Q 1816 3084 2150 3084 
Q 2853 3084 3261 2657 
Q 3669 2231 3669 1497 
Q 3669 778 3244 343 
Q 2819 -91 2113 -91 
Q 1303 -91 875 529 
Q 447 1150 447 2328 
Q 447 3434 972 4092 
Q 1497 4750 2381 4750 
Q 2619 4750 2861 4703 
Q 3103 4656 3366 4563 
z
" transform="scale(0.015625)"/>
       </defs>
       <use xlink:href="#DejaVuSans-36"/>
      </g>
     </g>
    </g>
    <g id="xtick_3">
     <g id="line2d_3">
      <g>
       <use xlink:href="#m05f8e4eeb9" x="182.013693" y="238.637969" style="stroke: #000000; stroke-width: 0.8"/>
      </g>
     </g>
     <g id="text_3">
      <!-- 8 -->
      <g transform="translate(178.832443 253.236406) scale(0.1 -0.1)">
       <defs>
        <path id="DejaVuSans-38" d="M 2034 2216 
Q 1584 2216 1326 1975 
Q 1069 1734 1069 1313 
Q 1069 891 1326 650 
Q 1584 409 2034 409 
Q 2484 409 2743 651 
Q 3003 894 3003 1313 
Q 3003 1734 2745 1975 
Q 2488 2216 2034 2216 
z
M 1403 2484 
Q 997 2584 770 2862 
Q 544 3141 544 3541 
Q 544 4100 942 4425 
Q 1341 4750 2034 4750 
Q 2731 4750 3128 4425 
Q 3525 4100 3525 3541 
Q 3525 3141 3298 2862 
Q 3072 2584 2669 2484 
Q 3125 2378 3379 2068 
Q 3634 1759 3634 1313 
Q 3634 634 3220 271 
Q 2806 -91 2034 -91 
Q 1263 -91 848 271 
Q 434 634 434 1313 
Q 434 1759 690 2068 
Q 947 2378 1403 2484 
z
M 1172 3481 
Q 1172 3119 1398 2916 
Q 1625 2713 2034 2713 
Q 2441 2713 2670 2916 
Q 2900 3119 2900 3481 
Q 2900 3844 2670 4047 
Q 2441 4250 2034 4250 
Q 1625 4250 1398 4047 
Q 1172 3844 1172 3481 
z
" transform="scale(0.015625)"/>
       </defs>
       <use xlink:href="#DejaVuSans-38"/>
      </g>
     </g>
    </g>
    <g id="xtick_4">
     <g id="line2d_4">
      <g>
       <use xlink:href="#m05f8e4eeb9" x="222.859148" y="238.637969" style="stroke: #000000; stroke-width: 0.8"/>
      </g>
     </g>
     <g id="text_4">
      <!-- 10 -->
      <g transform="translate(216.496648 253.236406) scale(0.1 -0.1)">
       <defs>
        <path id="DejaVuSans-31" d="M 794 531 
L 1825 531 
L 1825 4091 
L 703 3866 
L 703 4441 
L 1819 4666 
L 2450 4666 
L 2450 531 
L 3481 531 
L 3481 0 
L 794 0 
L 794 531 
z
" transform="scale(0.015625)"/>
        <path id="DejaVuSans-30" d="M 2034 4250 
Q 1547 4250 1301 3770 
Q 1056 3291 1056 2328 
Q 1056 1369 1301 889 
Q 1547 409 2034 409 
Q 2525 409 2770 889 
Q 3016 1369 3016 2328 
Q 3016 3291 2770 3770 
Q 2525 4250 2034 4250 
z
M 2034 4750 
Q 2819 4750 3233 4129 
Q 3647 3509 3647 2328 
Q 3647 1150 3233 529 
Q 2819 -91 2034 -91 
Q 1250 -91 836 529 
Q 422 1150 422 2328 
Q 422 3509 836 4129 
Q 1250 4750 2034 4750 
z
" transform="scale(0.015625)"/>
       </defs>
       <use xlink:href="#DejaVuSans-31"/>
       <use xlink:href="#DejaVuSans-30" x="63.623047"/>
      </g>
     </g>
    </g>
    <g id="xtick_5">
     <g id="line2d_5">
      <g>
       <use xlink:href="#m05f8e4eeb9" x="263.704602" y="238.637969" style="stroke: #000000; stroke-width: 0.8"/>
      </g>
     </g>
     <g id="text_5">
      <!-- 12 -->
      <g transform="translate(257.342102 253.236406) scale(0.1 -0.1)">
       <defs>
        <path id="DejaVuSans-32" d="M 1228 531 
L 3431 531 
L 3431 0 
L 469 0 
L 469 531 
Q 828 903 1448 1529 
Q 2069 2156 2228 2338 
Q 2531 2678 2651 2914 
Q 2772 3150 2772 3378 
Q 2772 3750 2511 3984 
Q 2250 4219 1831 4219 
Q 1534 4219 1204 4116 
Q 875 4013 500 3803 
L 500 4441 
Q 881 4594 1212 4672 
Q 1544 4750 1819 4750 
Q 2544 4750 2975 4387 
Q 3406 4025 3406 3419 
Q 3406 3131 3298 2873 
Q 3191 2616 2906 2266 
Q 2828 2175 2409 1742 
Q 1991 1309 1228 531 
z
" transform="scale(0.015625)"/>
       </defs>
       <use xlink:href="#DejaVuSans-31"/>
       <use xlink:href="#DejaVuSans-32" x="63.623047"/>
      </g>
     </g>
    </g>
    <g id="xtick_6">
     <g id="line2d_6">
      <g>
       <use xlink:href="#m05f8e4eeb9" x="304.550057" y="238.637969" style="stroke: #000000; stroke-width: 0.8"/>
      </g>
     </g>
     <g id="text_6">
      <!-- 14 -->
      <g transform="translate(298.187557 253.236406) scale(0.1 -0.1)">
       <use xlink:href="#DejaVuSans-31"/>
       <use xlink:href="#DejaVuSans-34" x="63.623047"/>
      </g>
     </g>
    </g>
    <g id="xtick_7">
     <g id="line2d_7">
      <g>
       <use xlink:href="#m05f8e4eeb9" x="345.395511" y="238.637969" style="stroke: #000000; stroke-width: 0.8"/>
      </g>
     </g>
     <g id="text_7">
      <!-- 16 -->
      <g transform="translate(339.033011 253.236406) scale(0.1 -0.1)">
       <use xlink:href="#DejaVuSans-31"/>
       <use xlink:href="#DejaVuSans-36" x="63.623047"/>
      </g>
     </g>
    </g>
    <g id="xtick_8">
     <g id="line2d_8">
      <g>
       <use xlink:href="#m05f8e4eeb9" x="386.240966" y="238.637969" style="stroke: #000000; stroke-width: 0.8"/>
      </g>
     </g>
     <g id="text_8">
      <!-- 18 -->
      <g transform="translate(379.878466 253.236406) scale(0.1 -0.1)">
       <use xlink:href="#DejaVuSans-31"/>
       <use xlink:href="#DejaVuSans-38" x="63.623047"/>
      </g>
     </g>
    </g>
    <g id="text_9">
     <!-- buffer size -->
     <g transform="translate(206.491406 269.953906) scale(0.14 -0.14)">
      <defs>
       <path id="DejaVuSans-62" d="M 3116 1747 
Q 3116 2381 2855 2742 
Q 2594 3103 2138 3103 
Q 1681 3103 1420 2742 
Q 1159 2381 1159 1747 
Q 1159 1113 1420 752 
Q 1681 391 2138 391 
Q 2594 391 2855 752 
Q 3116 1113 3116 1747 
z
M 1159 2969 
Q 1341 3281 1617 3432 
Q 1894 3584 2278 3584 
Q 2916 3584 3314 3078 
Q 3713 2572 3713 1747 
Q 3713 922 3314 415 
Q 2916 -91 2278 -91 
Q 1894 -91 1617 61 
Q 1341 213 1159 525 
L 1159 0 
L 581 0 
L 581 4863 
L 1159 4863 
L 1159 2969 
z
" transform="scale(0.015625)"/>
       <path id="DejaVuSans-75" d="M 544 1381 
L 544 3500 
L 1119 3500 
L 1119 1403 
Q 1119 906 1312 657 
Q 1506 409 1894 409 
Q 2359 409 2629 706 
Q 2900 1003 2900 1516 
L 2900 3500 
L 3475 3500 
L 3475 0 
L 2900 0 
L 2900 538 
Q 2691 219 2414 64 
Q 2138 -91 1772 -91 
Q 1169 -91 856 284 
Q 544 659 544 1381 
z
M 1991 3584 
L 1991 3584 
z
" transform="scale(0.015625)"/>
       <path id="DejaVuSans-66" d="M 2375 4863 
L 2375 4384 
L 1825 4384 
Q 1516 4384 1395 4259 
Q 1275 4134 1275 3809 
L 1275 3500 
L 2222 3500 
L 2222 3053 
L 1275 3053 
L 1275 0 
L 697 0 
L 697 3053 
L 147 3053 
L 147 3500 
L 697 3500 
L 697 3744 
Q 697 4328 969 4595 
Q 1241 4863 1831 4863 
L 2375 4863 
z
" transform="scale(0.015625)"/>
       <path id="DejaVuSans-65" d="M 3597 1894 
L 3597 1613 
L 953 1613 
Q 991 1019 1311 708 
Q 1631 397 2203 397 
Q 2534 397 2845 478 
Q 3156 559 3463 722 
L 3463 178 
Q 3153 47 2828 -22 
Q 2503 -91 2169 -91 
Q 1331 -91 842 396 
Q 353 884 353 1716 
Q 353 2575 817 3079 
Q 1281 3584 2069 3584 
Q 2775 3584 3186 3129 
Q 3597 2675 3597 1894 
z
M 3022 2063 
Q 3016 2534 2758 2815 
Q 2500 3097 2075 3097 
Q 1594 3097 1305 2825 
Q 1016 2553 972 2059 
L 3022 2063 
z
" transform="scale(0.015625)"/>
       <path id="DejaVuSans-72" d="M 2631 2963 
Q 2534 3019 2420 3045 
Q 2306 3072 2169 3072 
Q 1681 3072 1420 2755 
Q 1159 2438 1159 1844 
L 1159 0 
L 581 0 
L 581 3500 
L 1159 3500 
L 1159 2956 
Q 1341 3275 1631 3429 
Q 1922 3584 2338 3584 
Q 2397 3584 2469 3576 
Q 2541 3569 2628 3553 
L 2631 2963 
z
" transform="scale(0.015625)"/>
       <path id="DejaVuSans-20" transform="scale(0.015625)"/>
       <path id="DejaVuSans-73" d="M 2834 3397 
L 2834 2853 
Q 2591 2978 2328 3040 
Q 2066 3103 1784 3103 
Q 1356 3103 1142 2972 
Q 928 2841 928 2578 
Q 928 2378 1081 2264 
Q 1234 2150 1697 2047 
L 1894 2003 
Q 2506 1872 2764 1633 
Q 3022 1394 3022 966 
Q 3022 478 2636 193 
Q 2250 -91 1575 -91 
Q 1294 -91 989 -36 
Q 684 19 347 128 
L 347 722 
Q 666 556 975 473 
Q 1284 391 1588 391 
Q 1994 391 2212 530 
Q 2431 669 2431 922 
Q 2431 1156 2273 1281 
Q 2116 1406 1581 1522 
L 1381 1569 
Q 847 1681 609 1914 
Q 372 2147 372 2553 
Q 372 3047 722 3315 
Q 1072 3584 1716 3584 
Q 2034 3584 2315 3537 
Q 2597 3491 2834 3397 
z
" transform="scale(0.015625)"/>
       <path id="DejaVuSans-69" d="M 603 3500 
L 1178 3500 
L 1178 0 
L 603 0 
L 603 3500 
z
M 603 4863 
L 1178 4863 
L 1178 4134 
L 603 4134 
L 603 4863 
z
" transform="scale(0.015625)"/>
       <path id="DejaVuSans-7a" d="M 353 3500 
L 3084 3500 
L 3084 2975 
L 922 459 
L 3084 459 
L 3084 0 
L 275 0 
L 275 525 
L 2438 3041 
L 353 3041 
L 353 3500 
z
" transform="scale(0.015625)"/>
      </defs>
      <use xlink:href="#DejaVuSans-62"/>
      <use xlink:href="#DejaVuSans-75" x="63.476562"/>
      <use xlink:href="#DejaVuSans-66" x="126.855469"/>
      <use xlink:href="#DejaVuSans-66" x="162.060547"/>
      <use xlink:href="#DejaVuSans-65" x="197.265625"/>
      <use xlink:href="#DejaVuSans-72" x="258.789062"/>
      <use xlink:href="#DejaVuSans-20" x="299.902344"/>
      <use xlink:href="#DejaVuSans-73" x="331.689453"/>
      <use xlink:href="#DejaVuSans-69" x="383.789062"/>
      <use xlink:href="#DejaVuSans-7a" x="411.572266"/>
      <use xlink:href="#DejaVuSans-65" x="464.0625"/>
     </g>
    </g>
   </g>
   <g id="matplotlib.axis_2">
    <g id="ytick_1">
     <g id="line2d_9">
      <path d="M 63.561875 221.910181 
L 423.001875 221.910181 
" clip-path="url(#pf466b0ad8d)" style="fill: none; stroke: #d3d3d3; stroke-linecap: square"/>
     </g>
     <g id="line2d_10">
      <defs>
       <path id="mcd51a0d0fa" d="M 0 0 
L -3.5 0 
" style="stroke: #000000; stroke-width: 0.8"/>
      </defs>
      <g>
       <use xlink:href="#mcd51a0d0fa" x="63.561875" y="221.910181" style="stroke: #000000; stroke-width: 0.8"/>
      </g>
     </g>
     <g id="text_10">
      <!-- 10000 -->
      <g transform="translate(24.749375 225.709399) scale(0.1 -0.1)">
       <use xlink:href="#DejaVuSans-31"/>
       <use xlink:href="#DejaVuSans-30" x="63.623047"/>
       <use xlink:href="#DejaVuSans-30" x="127.246094"/>
       <use xlink:href="#DejaVuSans-30" x="190.869141"/>
       <use xlink:href="#DejaVuSans-30" x="254.492188"/>
      </g>
     </g>
    </g>
    <g id="ytick_2">
     <g id="line2d_11">
      <path d="M 63.561875 186.734514 
L 423.001875 186.734514 
" clip-path="url(#pf466b0ad8d)" style="fill: none; stroke: #d3d3d3; stroke-linecap: square"/>
     </g>
     <g id="line2d_12">
      <g>
       <use xlink:href="#mcd51a0d0fa" x="63.561875" y="186.734514" style="stroke: #000000; stroke-width: 0.8"/>
      </g>
     </g>
     <g id="text_11">
      <!-- 12000 -->
      <g transform="translate(24.749375 190.533733) scale(0.1 -0.1)">
       <use xlink:href="#DejaVuSans-31"/>
       <use xlink:href="#DejaVuSans-32" x="63.623047"/>
       <use xlink:href="#DejaVuSans-30" x="127.246094"/>
       <use xlink:href="#DejaVuSans-30" x="190.869141"/>
       <use xlink:href="#DejaVuSans-30" x="254.492188"/>
      </g>
     </g>
    </g>
    <g id="ytick_3">
     <g id="line2d_13">
      <path d="M 63.561875 151.558848 
L 423.001875 151.558848 
" clip-path="url(#pf466b0ad8d)" style="fill: none; stroke: #d3d3d3; stroke-linecap: square"/>
     </g>
     <g id="line2d_14">
      <g>
       <use xlink:href="#mcd51a0d0fa" x="63.561875" y="151.558848" style="stroke: #000000; stroke-width: 0.8"/>
      </g>
     </g>
     <g id="text_12">
      <!-- 14000 -->
      <g transform="translate(24.749375 155.358067) scale(0.1 -0.1)">
       <use xlink:href="#DejaVuSans-31"/>
       <use xlink:href="#DejaVuSans-34" x="63.623047"/>
       <use xlink:href="#DejaVuSans-30" x="127.246094"/>
       <use xlink:href="#DejaVuSans-30" x="190.869141"/>
       <use xlink:href="#DejaVuSans-30" x="254.492188"/>
      </g>
     </g>
    </g>
    <g id="ytick_4">
     <g id="line2d_15">
      <path d="M 63.561875 116.383182 
L 423.001875 116.383182 
" clip-path="url(#pf466b0ad8d)" style="fill: none; stroke: #d3d3d3; stroke-linecap: square"/>
     </g>
     <g id="line2d_16">
      <g>
       <use xlink:href="#mcd51a0d0fa" x="63.561875" y="116.383182" style="stroke: #000000; stroke-width: 0.8"/>
      </g>
     </g>
     <g id="text_13">
      <!-- 16000 -->
      <g transform="translate(24.749375 120.182401) scale(0.1 -0.1)">
       <use xlink:href="#DejaVuSans-31"/>
       <use xlink:href="#DejaVuSans-36" x="63.623047"/>
       <use xlink:href="#DejaVuSans-30" x="127.246094"/>
       <use xlink:href="#DejaVuSans-30" x="190.869141"/>
       <use xlink:href="#DejaVuSans-30" x="254.492188"/>
      </g>
     </g>
    </g>
    <g id="ytick_5">
     <g id="line2d_17">
      <path d="M 63.561875 81.207516 
L 423.001875 81.207516 
" clip-path="url(#pf466b0ad8d)" style="fill: none; stroke: #d3d3d3; stroke-linecap: square"/>
     </g>
     <g id="line2d_18">
      <g>
       <use xlink:href="#mcd51a0d0fa" x="63.561875" y="81.207516" style="stroke: #000000; stroke-width: 0.8"/>
      </g>
     </g>
     <g id="text_14">
      <!-- 18000 -->
      <g transform="translate(24.749375 85.006735) scale(0.1 -0.1)">
       <use xlink:href="#DejaVuSans-31"/>
       <use xlink:href="#DejaVuSans-38" x="63.623047"/>
       <use xlink:href="#DejaVuSans-30" x="127.246094"/>
       <use xlink:href="#DejaVuSans-30" x="190.869141"/>
       <use xlink:href="#DejaVuSans-30" x="254.492188"/>
      </g>
     </g>
    </g>
    <g id="ytick_6">
     <g id="line2d_19">
      <path d="M 63.561875 46.03185 
L 423.001875 46.03185 
" clip-path="url(#pf466b0ad8d)" style="fill: none; stroke: #d3d3d3; stroke-linecap: square"/>
     </g>
     <g id="line2d_20">
      <g>
       <use xlink:href="#mcd51a0d0fa" x="63.561875" y="46.03185" style="stroke: #000000; stroke-width: 0.8"/>
      </g>
     </g>
     <g id="text_15">
      <!-- 20000 -->
      <g transform="translate(24.749375 49.831068) scale(0.1 -0.1)">
       <use xlink:href="#DejaVuSans-32"/>
       <use xlink:href="#DejaVuSans-30" x="63.623047"/>
       <use xlink:href="#DejaVuSans-30" x="127.246094"/>
       <use xlink:href="#DejaVuSans-30" x="190.869141"/>
       <use xlink:href="#DejaVuSans-30" x="254.492188"/>
      </g>
     </g>
    </g>
    <g id="text_16">
     <!-- latency -->
     <g transform="translate(17.837812 156.572031) rotate(-90) scale(0.14 -0.14)">
      <defs>
       <path id="DejaVuSans-6c" d="M 603 4863 
L 1178 4863 
L 1178 0 
L 603 0 
L 603 4863 
z
" transform="scale(0.015625)"/>
       <path id="DejaVuSans-61" d="M 2194 1759 
Q 1497 1759 1228 1600 
Q 959 1441 959 1056 
Q 959 750 1161 570 
Q 1363 391 1709 391 
Q 2188 391 2477 730 
Q 2766 1069 2766 1631 
L 2766 1759 
L 2194 1759 
z
M 3341 1997 
L 3341 0 
L 2766 0 
L 2766 531 
Q 2569 213 2275 61 
Q 1981 -91 1556 -91 
Q 1019 -91 701 211 
Q 384 513 384 1019 
Q 384 1609 779 1909 
Q 1175 2209 1959 2209 
L 2766 2209 
L 2766 2266 
Q 2766 2663 2505 2880 
Q 2244 3097 1772 3097 
Q 1472 3097 1187 3025 
Q 903 2953 641 2809 
L 641 3341 
Q 956 3463 1253 3523 
Q 1550 3584 1831 3584 
Q 2591 3584 2966 3190 
Q 3341 2797 3341 1997 
z
" transform="scale(0.015625)"/>
       <path id="DejaVuSans-74" d="M 1172 4494 
L 1172 3500 
L 2356 3500 
L 2356 3053 
L 1172 3053 
L 1172 1153 
Q 1172 725 1289 603 
Q 1406 481 1766 481 
L 2356 481 
L 2356 0 
L 1766 0 
Q 1100 0 847 248 
Q 594 497 594 1153 
L 594 3053 
L 172 3053 
L 172 3500 
L 594 3500 
L 594 4494 
L 1172 4494 
z
" transform="scale(0.015625)"/>
       <path id="DejaVuSans-6e" d="M 3513 2113 
L 3513 0 
L 2938 0 
L 2938 2094 
Q 2938 2591 2744 2837 
Q 2550 3084 2163 3084 
Q 1697 3084 1428 2787 
Q 1159 2491 1159 1978 
L 1159 0 
L 581 0 
L 581 3500 
L 1159 3500 
L 1159 2956 
Q 1366 3272 1645 3428 
Q 1925 3584 2291 3584 
Q 2894 3584 3203 3211 
Q 3513 2838 3513 2113 
z
" transform="scale(0.015625)"/>
       <path id="DejaVuSans-63" d="M 3122 3366 
L 3122 2828 
Q 2878 2963 2633 3030 
Q 2388 3097 2138 3097 
Q 1578 3097 1268 2742 
Q 959 2388 959 1747 
Q 959 1106 1268 751 
Q 1578 397 2138 397 
Q 2388 397 2633 464 
Q 2878 531 3122 666 
L 3122 134 
Q 2881 22 2623 -34 
Q 2366 -91 2075 -91 
Q 1284 -91 818 406 
Q 353 903 353 1747 
Q 353 2603 823 3093 
Q 1294 3584 2113 3584 
Q 2378 3584 2631 3529 
Q 2884 3475 3122 3366 
z
" transform="scale(0.015625)"/>
       <path id="DejaVuSans-79" d="M 2059 -325 
Q 1816 -950 1584 -1140 
Q 1353 -1331 966 -1331 
L 506 -1331 
L 506 -850 
L 844 -850 
Q 1081 -850 1212 -737 
Q 1344 -625 1503 -206 
L 1606 56 
L 191 3500 
L 800 3500 
L 1894 763 
L 2988 3500 
L 3597 3500 
L 2059 -325 
z
" transform="scale(0.015625)"/>
      </defs>
      <use xlink:href="#DejaVuSans-6c"/>
      <use xlink:href="#DejaVuSans-61" x="27.783203"/>
      <use xlink:href="#DejaVuSans-74" x="89.0625"/>
      <use xlink:href="#DejaVuSans-65" x="128.271484"/>
      <use xlink:href="#DejaVuSans-6e" x="189.794922"/>
      <use xlink:href="#DejaVuSans-63" x="253.173828"/>
      <use xlink:href="#DejaVuSans-79" x="308.154297"/>
     </g>
    </g>
   </g>
   <g id="line2d_21">
    <path d="M 79.900057 50.25293 
L 120.745511 149.958355 
L 161.590966 147.707113 
L 202.43642 187.068683 
L 243.281875 225.445335 
L 284.12733 221.224255 
L 324.972784 228.839787 
L 365.818239 228.347328 
L 406.663693 226.799598 
" clip-path="url(#pf466b0ad8d)" style="fill: none; stroke: #9467bd; stroke-width: 3; stroke-linecap: square"/>
    <defs>
     <path id="m1dbfd6567e" d="M 0 4 
C 1.060812 4 2.078319 3.578535 2.828427 2.828427 
C 3.578535 2.078319 4 1.060812 4 0 
C 4 -1.060812 3.578535 -2.078319 2.828427 -2.828427 
C 2.078319 -3.578535 1.060812 -4 0 -4 
C -1.060812 -4 -2.078319 -3.578535 -2.828427 -2.828427 
C -3.578535 -2.078319 -4 -1.060812 -4 0 
C -4 1.060812 -3.578535 2.078319 -2.828427 2.828427 
C -2.078319 3.578535 -1.060812 4 0 4 
z
" style="stroke: #9467bd"/>
    </defs>
    <g clip-path="url(#pf466b0ad8d)">
     <use xlink:href="#m1dbfd6567e" x="79.900057" y="50.25293" style="fill: #9467bd; stroke: #9467bd"/>
     <use xlink:href="#m1dbfd6567e" x="120.745511" y="149.958355" style="fill: #9467bd; stroke: #9467bd"/>
     <use xlink:href="#m1dbfd6567e" x="161.590966" y="147.707113" style="fill: #9467bd; stroke: #9467bd"/>
     <use xlink:href="#m1dbfd6567e" x="202.43642" y="187.068683" style="fill: #9467bd; stroke: #9467bd"/>
     <use xlink:href="#m1dbfd6567e" x="243.281875" y="225.445335" style="fill: #9467bd; stroke: #9467bd"/>
     <use xlink:href="#m1dbfd6567e" x="284.12733" y="221.224255" style="fill: #9467bd; stroke: #9467bd"/>
     <use xlink:href="#m1dbfd6567e" x="324.972784" y="228.839787" style="fill: #9467bd; stroke: #9467bd"/>
     <use xlink:href="#m1dbfd6567e" x="365.818239" y="228.347328" style="fill: #9467bd; stroke: #9467bd"/>
     <use xlink:href="#m1dbfd6567e" x="406.663693" y="226.799598" style="fill: #9467bd; stroke: #9467bd"/>
    </g>
   </g>
   <g id="line2d_22">
    <path d="M 79.900057 32.876151 
L 120.745511 33.650015 
L 161.590966 33.650015 
L 202.43642 33.650015 
L 243.281875 33.650015 
L 284.12733 33.650015 
L 324.972784 33.650015 
L 365.818239 33.650015 
L 406.663693 33.650015 
" clip-path="url(#pf466b0ad8d)" style="fill: none; stroke-dasharray: 3,4.95; stroke-dashoffset: 0; stroke: #9467bd; stroke-width: 3"/>
    <g clip-path="url(#pf466b0ad8d)">
     <use xlink:href="#m1dbfd6567e" x="79.900057" y="32.876151" style="fill: #9467bd; stroke: #9467bd"/>
     <use xlink:href="#m1dbfd6567e" x="120.745511" y="33.650015" style="fill: #9467bd; stroke: #9467bd"/>
     <use xlink:href="#m1dbfd6567e" x="161.590966" y="33.650015" style="fill: #9467bd; stroke: #9467bd"/>
     <use xlink:href="#m1dbfd6567e" x="202.43642" y="33.650015" style="fill: #9467bd; stroke: #9467bd"/>
     <use xlink:href="#m1dbfd6567e" x="243.281875" y="33.650015" style="fill: #9467bd; stroke: #9467bd"/>
     <use xlink:href="#m1dbfd6567e" x="284.12733" y="33.650015" style="fill: #9467bd; stroke: #9467bd"/>
     <use xlink:href="#m1dbfd6567e" x="324.972784" y="33.650015" style="fill: #9467bd; stroke: #9467bd"/>
     <use xlink:href="#m1dbfd6567e" x="365.818239" y="33.650015" style="fill: #9467bd; stroke: #9467bd"/>
     <use xlink:href="#m1dbfd6567e" x="406.663693" y="33.650015" style="fill: #9467bd; stroke: #9467bd"/>
    </g>
   </g>
   <g id="LineCollection_1">
    <path d="M 79.900057 50.25293 
L 79.900057 32.876151 
" clip-path="url(#pf466b0ad8d)" style="fill: none; stroke-dasharray: 4.44,1.92; stroke-dashoffset: 0; stroke: #808080; stroke-width: 1.2"/>
   </g>
   <g id="LineCollection_2">
    <path d="M 406.663693 226.799598 
L 406.663693 33.650015 
" clip-path="url(#pf466b0ad8d)" style="fill: none; stroke-dasharray: 4.44,1.92; stroke-dashoffset: 0; stroke: #808080; stroke-width: 1.2"/>
   </g>
   <g id="patch_3">
    <path d="M 63.561875 238.637969 
L 63.561875 23.077969 
" style="fill: none; stroke: #000000; stroke-width: 0.8; stroke-linejoin: miter; stroke-linecap: square"/>
   </g>
   <g id="patch_4">
    <path d="M 423.001875 238.637969 
L 423.001875 23.077969 
" style="fill: none; stroke: #000000; stroke-width: 0.8; stroke-linejoin: miter; stroke-linecap: square"/>
   </g>
   <g id="patch_5">
    <path d="M 63.561875 238.637969 
L 423.001875 238.637969 
" style="fill: none; stroke: #000000; stroke-width: 0.8; stroke-linejoin: miter; stroke-linecap: square"/>
   </g>
   <g id="patch_6">
    <path d="M 63.561875 23.077969 
L 423.001875 23.077969 
" style="fill: none; stroke: #000000; stroke-width: 0.8; stroke-linejoin: miter; stroke-linecap: square"/>
   </g>
   <g id="text_17">
    <!-- 1.1x -->
    <g transform="translate(86.43533 44.323915) scale(0.1 -0.1)">
     <defs>
      <path id="DejaVuSans-2e" d="M 684 794 
L 1344 794 
L 1344 0 
L 684 0 
L 684 794 
z
" transform="scale(0.015625)"/>
      <path id="DejaVuSans-78" d="M 3513 3500 
L 2247 1797 
L 3578 0 
L 2900 0 
L 1881 1375 
L 863 0 
L 184 0 
L 1544 1831 
L 300 3500 
L 978 3500 
L 1906 2253 
L 2834 3500 
L 3513 3500 
z
" transform="scale(0.015625)"/>
     </defs>
     <use xlink:href="#DejaVuSans-31"/>
     <use xlink:href="#DejaVuSans-2e" x="63.623047"/>
     <use xlink:href="#DejaVuSans-31" x="95.410156"/>
     <use xlink:href="#DejaVuSans-78" x="159.033203"/>
    </g>
   </g>
   <g id="text_18">
    <!-- 2.1x -->
    <g transform="translate(373.98733 132.984182) scale(0.1 -0.1)">
     <use xlink:href="#DejaVuSans-32"/>
     <use xlink:href="#DejaVuSans-2e" x="63.623047"/>
     <use xlink:href="#DejaVuSans-31" x="95.410156"/>
     <use xlink:href="#DejaVuSans-78" x="159.033203"/>
    </g>
   </g>
   <g id="text_19">
    <!-- (a) -->
    <g transform="translate(234.226562 17.077969) scale(0.13 -0.13)">
     <defs>
      <path id="DejaVuSans-28" d="M 1984 4856 
Q 1566 4138 1362 3434 
Q 1159 2731 1159 2009 
Q 1159 1288 1364 580 
Q 1569 -128 1984 -844 
L 1484 -844 
Q 1016 -109 783 600 
Q 550 1309 550 2009 
Q 550 2706 781 3412 
Q 1013 4119 1484 4856 
L 1984 4856 
z
" transform="scale(0.015625)"/>
      <path id="DejaVuSans-29" d="M 513 4856 
L 1013 4856 
Q 1481 4119 1714 3412 
Q 1947 2706 1947 2009 
Q 1947 1309 1714 600 
Q 1481 -109 1013 -844 
L 513 -844 
Q 928 -128 1133 580 
Q 1338 1288 1338 2009 
Q 1338 2731 1133 3434 
Q 928 4138 513 4856 
z
" transform="scale(0.015625)"/>
     </defs>
     <use xlink:href="#DejaVuSans-28"/>
     <use xlink:href="#DejaVuSans-61" x="39.013672"/>
     <use xlink:href="#DejaVuSans-29" x="100.292969"/>
    </g>
   </g>
   <g id="legend_1">
    <g id="patch_7">
     <path d="M 70.561875 233.637969 
L 176.905625 233.637969 
Q 178.905625 233.637969 178.905625 231.637969 
L 178.905625 203.281719 
Q 178.905625 201.281719 176.905625 201.281719 
L 70.561875 201.281719 
Q 68.561875 201.281719 68.561875 203.281719 
L 68.561875 231.637969 
Q 68.561875 233.637969 70.561875 233.637969 
z
" style="fill: #ffffff; opacity: 0.8; stroke: #cccccc; stroke-linejoin: miter"/>
    </g>
    <g id="line2d_23">
     <path d="M 72.561875 209.380156 
L 82.561875 209.380156 
L 92.561875 209.380156 
" style="fill: none; stroke: #9467bd; stroke-width: 3; stroke-linecap: square"/>
     <g>
      <use xlink:href="#m1dbfd6567e" x="82.561875" y="209.380156" style="fill: #9467bd; stroke: #9467bd"/>
     </g>
    </g>
    <g id="text_20">
     <!-- QAOA -->
     <g transform="translate(100.561875 212.880156) scale(0.1 -0.1)">
      <defs>
       <path id="DejaVuSans-51" d="M 2522 4238 
Q 1834 4238 1429 3725 
Q 1025 3213 1025 2328 
Q 1025 1447 1429 934 
Q 1834 422 2522 422 
Q 3209 422 3611 934 
Q 4013 1447 4013 2328 
Q 4013 3213 3611 3725 
Q 3209 4238 2522 4238 
z
M 3406 84 
L 4238 -825 
L 3475 -825 
L 2784 -78 
Q 2681 -84 2626 -87 
Q 2572 -91 2522 -91 
Q 1538 -91 948 567 
Q 359 1225 359 2328 
Q 359 3434 948 4092 
Q 1538 4750 2522 4750 
Q 3503 4750 4090 4092 
Q 4678 3434 4678 2328 
Q 4678 1516 4351 937 
Q 4025 359 3406 84 
z
" transform="scale(0.015625)"/>
       <path id="DejaVuSans-41" d="M 2188 4044 
L 1331 1722 
L 3047 1722 
L 2188 4044 
z
M 1831 4666 
L 2547 4666 
L 4325 0 
L 3669 0 
L 3244 1197 
L 1141 1197 
L 716 0 
L 50 0 
L 1831 4666 
z
" transform="scale(0.015625)"/>
       <path id="DejaVuSans-4f" d="M 2522 4238 
Q 1834 4238 1429 3725 
Q 1025 3213 1025 2328 
Q 1025 1447 1429 934 
Q 1834 422 2522 422 
Q 3209 422 3611 934 
Q 4013 1447 4013 2328 
Q 4013 3213 3611 3725 
Q 3209 4238 2522 4238 
z
M 2522 4750 
Q 3503 4750 4090 4092 
Q 4678 3434 4678 2328 
Q 4678 1225 4090 567 
Q 3503 -91 2522 -91 
Q 1538 -91 948 565 
Q 359 1222 359 2328 
Q 359 3434 948 4092 
Q 1538 4750 2522 4750 
z
" transform="scale(0.015625)"/>
      </defs>
      <use xlink:href="#DejaVuSans-51"/>
      <use xlink:href="#DejaVuSans-41" x="78.710938"/>
      <use xlink:href="#DejaVuSans-4f" x="145.369141"/>
      <use xlink:href="#DejaVuSans-41" x="222.330078"/>
     </g>
    </g>
    <g id="line2d_24">
     <path d="M 72.561875 224.058281 
L 82.561875 224.058281 
L 92.561875 224.058281 
" style="fill: none; stroke-dasharray: 3,4.95; stroke-dashoffset: 0; stroke: #9467bd; stroke-width: 3"/>
     <g>
      <use xlink:href="#m1dbfd6567e" x="82.561875" y="224.058281" style="fill: #9467bd; stroke: #9467bd"/>
     </g>
    </g>
    <g id="text_21">
     <!-- QAOA-baseline -->
     <g transform="translate(100.561875 227.558281) scale(0.1 -0.1)">
      <defs>
       <path id="DejaVuSans-2d" d="M 313 2009 
L 1997 2009 
L 1997 1497 
L 313 1497 
L 313 2009 
z
" transform="scale(0.015625)"/>
      </defs>
      <use xlink:href="#DejaVuSans-51"/>
      <use xlink:href="#DejaVuSans-41" x="78.710938"/>
      <use xlink:href="#DejaVuSans-4f" x="145.369141"/>
      <use xlink:href="#DejaVuSans-41" x="222.330078"/>
      <use xlink:href="#DejaVuSans-2d" x="288.488281"/>
      <use xlink:href="#DejaVuSans-62" x="324.572266"/>
      <use xlink:href="#DejaVuSans-61" x="388.048828"/>
      <use xlink:href="#DejaVuSans-73" x="449.328125"/>
      <use xlink:href="#DejaVuSans-65" x="501.427734"/>
      <use xlink:href="#DejaVuSans-6c" x="562.951172"/>
      <use xlink:href="#DejaVuSans-69" x="590.734375"/>
      <use xlink:href="#DejaVuSans-6e" x="618.517578"/>
      <use xlink:href="#DejaVuSans-65" x="681.896484"/>
     </g>
    </g>
   </g>
  </g>
  <g id="axes_2">
   <g id="patch_8">
    <path d="M 490.161875 238.637969 
L 849.601875 238.637969 
L 849.601875 23.077969 
L 490.161875 23.077969 
z
" style="fill: #ffffff"/>
   </g>
   <g id="matplotlib.axis_3">
    <g id="xtick_9">
     <g id="line2d_25">
      <g>
       <use xlink:href="#m05f8e4eeb9" x="533.73036" y="238.637969" style="stroke: #000000; stroke-width: 0.8"/>
      </g>
     </g>
     <g id="text_22">
      <!-- 2 -->
      <g transform="translate(530.54911 253.236406) scale(0.1 -0.1)">
       <use xlink:href="#DejaVuSans-32"/>
      </g>
     </g>
    </g>
    <g id="xtick_10">
     <g id="line2d_26">
      <g>
       <use xlink:href="#m05f8e4eeb9" x="588.190966" y="238.637969" style="stroke: #000000; stroke-width: 0.8"/>
      </g>
     </g>
     <g id="text_23">
      <!-- 4 -->
      <g transform="translate(585.009716 253.236406) scale(0.1 -0.1)">
       <use xlink:href="#DejaVuSans-34"/>
      </g>
     </g>
    </g>
    <g id="xtick_11">
     <g id="line2d_27">
      <g>
       <use xlink:href="#m05f8e4eeb9" x="642.651572" y="238.637969" style="stroke: #000000; stroke-width: 0.8"/>
      </g>
     </g>
     <g id="text_24">
      <!-- 6 -->
      <g transform="translate(639.470322 253.236406) scale(0.1 -0.1)">
       <use xlink:href="#DejaVuSans-36"/>
      </g>
     </g>
    </g>
    <g id="xtick_12">
     <g id="line2d_28">
      <g>
       <use xlink:href="#m05f8e4eeb9" x="697.112178" y="238.637969" style="stroke: #000000; stroke-width: 0.8"/>
      </g>
     </g>
     <g id="text_25">
      <!-- 8 -->
      <g transform="translate(693.930928 253.236406) scale(0.1 -0.1)">
       <use xlink:href="#DejaVuSans-38"/>
      </g>
     </g>
    </g>
    <g id="xtick_13">
     <g id="line2d_29">
      <g>
       <use xlink:href="#m05f8e4eeb9" x="751.572784" y="238.637969" style="stroke: #000000; stroke-width: 0.8"/>
      </g>
     </g>
     <g id="text_26">
      <!-- 10 -->
      <g transform="translate(745.210284 253.236406) scale(0.1 -0.1)">
       <use xlink:href="#DejaVuSans-31"/>
       <use xlink:href="#DejaVuSans-30" x="63.623047"/>
      </g>
     </g>
    </g>
    <g id="xtick_14">
     <g id="line2d_30">
      <g>
       <use xlink:href="#m05f8e4eeb9" x="806.03339" y="238.637969" style="stroke: #000000; stroke-width: 0.8"/>
      </g>
     </g>
     <g id="text_27">
      <!-- 12 -->
      <g transform="translate(799.67089 253.236406) scale(0.1 -0.1)">
       <use xlink:href="#DejaVuSans-31"/>
       <use xlink:href="#DejaVuSans-32" x="63.623047"/>
      </g>
     </g>
    </g>
    <g id="text_28">
     <!-- look-ahead depth -->
     <g transform="translate(608.425156 269.953906) scale(0.14 -0.14)">
      <defs>
       <path id="DejaVuSans-6f" d="M 1959 3097 
Q 1497 3097 1228 2736 
Q 959 2375 959 1747 
Q 959 1119 1226 758 
Q 1494 397 1959 397 
Q 2419 397 2687 759 
Q 2956 1122 2956 1747 
Q 2956 2369 2687 2733 
Q 2419 3097 1959 3097 
z
M 1959 3584 
Q 2709 3584 3137 3096 
Q 3566 2609 3566 1747 
Q 3566 888 3137 398 
Q 2709 -91 1959 -91 
Q 1206 -91 779 398 
Q 353 888 353 1747 
Q 353 2609 779 3096 
Q 1206 3584 1959 3584 
z
" transform="scale(0.015625)"/>
       <path id="DejaVuSans-6b" d="M 581 4863 
L 1159 4863 
L 1159 1991 
L 2875 3500 
L 3609 3500 
L 1753 1863 
L 3688 0 
L 2938 0 
L 1159 1709 
L 1159 0 
L 581 0 
L 581 4863 
z
" transform="scale(0.015625)"/>
       <path id="DejaVuSans-68" d="M 3513 2113 
L 3513 0 
L 2938 0 
L 2938 2094 
Q 2938 2591 2744 2837 
Q 2550 3084 2163 3084 
Q 1697 3084 1428 2787 
Q 1159 2491 1159 1978 
L 1159 0 
L 581 0 
L 581 4863 
L 1159 4863 
L 1159 2956 
Q 1366 3272 1645 3428 
Q 1925 3584 2291 3584 
Q 2894 3584 3203 3211 
Q 3513 2838 3513 2113 
z
" transform="scale(0.015625)"/>
       <path id="DejaVuSans-64" d="M 2906 2969 
L 2906 4863 
L 3481 4863 
L 3481 0 
L 2906 0 
L 2906 525 
Q 2725 213 2448 61 
Q 2172 -91 1784 -91 
Q 1150 -91 751 415 
Q 353 922 353 1747 
Q 353 2572 751 3078 
Q 1150 3584 1784 3584 
Q 2172 3584 2448 3432 
Q 2725 3281 2906 2969 
z
M 947 1747 
Q 947 1113 1208 752 
Q 1469 391 1925 391 
Q 2381 391 2643 752 
Q 2906 1113 2906 1747 
Q 2906 2381 2643 2742 
Q 2381 3103 1925 3103 
Q 1469 3103 1208 2742 
Q 947 2381 947 1747 
z
" transform="scale(0.015625)"/>
       <path id="DejaVuSans-70" d="M 1159 525 
L 1159 -1331 
L 581 -1331 
L 581 3500 
L 1159 3500 
L 1159 2969 
Q 1341 3281 1617 3432 
Q 1894 3584 2278 3584 
Q 2916 3584 3314 3078 
Q 3713 2572 3713 1747 
Q 3713 922 3314 415 
Q 2916 -91 2278 -91 
Q 1894 -91 1617 61 
Q 1341 213 1159 525 
z
M 3116 1747 
Q 3116 2381 2855 2742 
Q 2594 3103 2138 3103 
Q 1681 3103 1420 2742 
Q 1159 2381 1159 1747 
Q 1159 1113 1420 752 
Q 1681 391 2138 391 
Q 2594 391 2855 752 
Q 3116 1113 3116 1747 
z
" transform="scale(0.015625)"/>
      </defs>
      <use xlink:href="#DejaVuSans-6c"/>
      <use xlink:href="#DejaVuSans-6f" x="27.783203"/>
      <use xlink:href="#DejaVuSans-6f" x="88.964844"/>
      <use xlink:href="#DejaVuSans-6b" x="150.146484"/>
      <use xlink:href="#DejaVuSans-2d" x="208.056641"/>
      <use xlink:href="#DejaVuSans-61" x="244.140625"/>
      <use xlink:href="#DejaVuSans-68" x="305.419922"/>
      <use xlink:href="#DejaVuSans-65" x="368.798828"/>
      <use xlink:href="#DejaVuSans-61" x="430.322266"/>
      <use xlink:href="#DejaVuSans-64" x="491.601562"/>
      <use xlink:href="#DejaVuSans-20" x="555.078125"/>
      <use xlink:href="#DejaVuSans-64" x="586.865234"/>
      <use xlink:href="#DejaVuSans-65" x="650.341797"/>
      <use xlink:href="#DejaVuSans-70" x="711.865234"/>
      <use xlink:href="#DejaVuSans-74" x="775.341797"/>
      <use xlink:href="#DejaVuSans-68" x="814.550781"/>
     </g>
    </g>
   </g>
   <g id="matplotlib.axis_4">
    <g id="ytick_7">
     <g id="line2d_31">
      <path d="M 490.161875 228.110213 
L 849.601875 228.110213 
" clip-path="url(#p8f7b48d738)" style="fill: none; stroke: #d3d3d3; stroke-linecap: square"/>
     </g>
     <g id="line2d_32">
      <g>
       <use xlink:href="#mcd51a0d0fa" x="490.161875" y="228.110213" style="stroke: #000000; stroke-width: 0.8"/>
      </g>
     </g>
     <g id="text_29">
      <!-- 10000 -->
      <g transform="translate(451.349375 231.909431) scale(0.1 -0.1)">
       <use xlink:href="#DejaVuSans-31"/>
       <use xlink:href="#DejaVuSans-30" x="63.623047"/>
       <use xlink:href="#DejaVuSans-30" x="127.246094"/>
       <use xlink:href="#DejaVuSans-30" x="190.869141"/>
       <use xlink:href="#DejaVuSans-30" x="254.492188"/>
      </g>
     </g>
    </g>
    <g id="ytick_8">
     <g id="line2d_33">
      <path d="M 490.161875 191.631502 
L 849.601875 191.631502 
" clip-path="url(#p8f7b48d738)" style="fill: none; stroke: #d3d3d3; stroke-linecap: square"/>
     </g>
     <g id="line2d_34">
      <g>
       <use xlink:href="#mcd51a0d0fa" x="490.161875" y="191.631502" style="stroke: #000000; stroke-width: 0.8"/>
      </g>
     </g>
     <g id="text_30">
      <!-- 12000 -->
      <g transform="translate(451.349375 195.43072) scale(0.1 -0.1)">
       <use xlink:href="#DejaVuSans-31"/>
       <use xlink:href="#DejaVuSans-32" x="63.623047"/>
       <use xlink:href="#DejaVuSans-30" x="127.246094"/>
       <use xlink:href="#DejaVuSans-30" x="190.869141"/>
       <use xlink:href="#DejaVuSans-30" x="254.492188"/>
      </g>
     </g>
    </g>
    <g id="ytick_9">
     <g id="line2d_35">
      <path d="M 490.161875 155.15279 
L 849.601875 155.15279 
" clip-path="url(#p8f7b48d738)" style="fill: none; stroke: #d3d3d3; stroke-linecap: square"/>
     </g>
     <g id="line2d_36">
      <g>
       <use xlink:href="#mcd51a0d0fa" x="490.161875" y="155.15279" style="stroke: #000000; stroke-width: 0.8"/>
      </g>
     </g>
     <g id="text_31">
      <!-- 14000 -->
      <g transform="translate(451.349375 158.952009) scale(0.1 -0.1)">
       <use xlink:href="#DejaVuSans-31"/>
       <use xlink:href="#DejaVuSans-34" x="63.623047"/>
       <use xlink:href="#DejaVuSans-30" x="127.246094"/>
       <use xlink:href="#DejaVuSans-30" x="190.869141"/>
       <use xlink:href="#DejaVuSans-30" x="254.492188"/>
      </g>
     </g>
    </g>
    <g id="ytick_10">
     <g id="line2d_37">
      <path d="M 490.161875 118.674079 
L 849.601875 118.674079 
" clip-path="url(#p8f7b48d738)" style="fill: none; stroke: #d3d3d3; stroke-linecap: square"/>
     </g>
     <g id="line2d_38">
      <g>
       <use xlink:href="#mcd51a0d0fa" x="490.161875" y="118.674079" style="stroke: #000000; stroke-width: 0.8"/>
      </g>
     </g>
     <g id="text_32">
      <!-- 16000 -->
      <g transform="translate(451.349375 122.473298) scale(0.1 -0.1)">
       <use xlink:href="#DejaVuSans-31"/>
       <use xlink:href="#DejaVuSans-36" x="63.623047"/>
       <use xlink:href="#DejaVuSans-30" x="127.246094"/>
       <use xlink:href="#DejaVuSans-30" x="190.869141"/>
       <use xlink:href="#DejaVuSans-30" x="254.492188"/>
      </g>
     </g>
    </g>
    <g id="ytick_11">
     <g id="line2d_39">
      <path d="M 490.161875 82.195368 
L 849.601875 82.195368 
" clip-path="url(#p8f7b48d738)" style="fill: none; stroke: #d3d3d3; stroke-linecap: square"/>
     </g>
     <g id="line2d_40">
      <g>
       <use xlink:href="#mcd51a0d0fa" x="490.161875" y="82.195368" style="stroke: #000000; stroke-width: 0.8"/>
      </g>
     </g>
     <g id="text_33">
      <!-- 18000 -->
      <g transform="translate(451.349375 85.994587) scale(0.1 -0.1)">
       <use xlink:href="#DejaVuSans-31"/>
       <use xlink:href="#DejaVuSans-38" x="63.623047"/>
       <use xlink:href="#DejaVuSans-30" x="127.246094"/>
       <use xlink:href="#DejaVuSans-30" x="190.869141"/>
       <use xlink:href="#DejaVuSans-30" x="254.492188"/>
      </g>
     </g>
    </g>
    <g id="ytick_12">
     <g id="line2d_41">
      <path d="M 490.161875 45.716657 
L 849.601875 45.716657 
" clip-path="url(#p8f7b48d738)" style="fill: none; stroke: #d3d3d3; stroke-linecap: square"/>
     </g>
     <g id="line2d_42">
      <g>
       <use xlink:href="#mcd51a0d0fa" x="490.161875" y="45.716657" style="stroke: #000000; stroke-width: 0.8"/>
      </g>
     </g>
     <g id="text_34">
      <!-- 20000 -->
      <g transform="translate(451.349375 49.515876) scale(0.1 -0.1)">
       <use xlink:href="#DejaVuSans-32"/>
       <use xlink:href="#DejaVuSans-30" x="63.623047"/>
       <use xlink:href="#DejaVuSans-30" x="127.246094"/>
       <use xlink:href="#DejaVuSans-30" x="190.869141"/>
       <use xlink:href="#DejaVuSans-30" x="254.492188"/>
      </g>
     </g>
    </g>
    <g id="text_35">
     <!-- latency -->
     <g transform="translate(444.437813 156.572031) rotate(-90) scale(0.14 -0.14)">
      <use xlink:href="#DejaVuSans-6c"/>
      <use xlink:href="#DejaVuSans-61" x="27.783203"/>
      <use xlink:href="#DejaVuSans-74" x="89.0625"/>
      <use xlink:href="#DejaVuSans-65" x="128.271484"/>
      <use xlink:href="#DejaVuSans-6e" x="189.794922"/>
      <use xlink:href="#DejaVuSans-63" x="253.173828"/>
      <use xlink:href="#DejaVuSans-79" x="308.154297"/>
     </g>
    </g>
   </g>
   <g id="line2d_43">
    <path d="M 506.500057 106.709062 
L 533.73036 167.62851 
L 560.960663 196.665564 
L 588.190966 211.950144 
L 615.421269 215.032595 
L 642.651572 221.835874 
L 669.881875 226.468671 
L 697.112178 222.127704 
L 724.342481 224.115794 
L 751.572784 221.489327 
L 778.803087 228.839787 
L 806.03339 226.304517 
L 833.263693 206.040592 
" clip-path="url(#p8f7b48d738)" style="fill: none; stroke: #9467bd; stroke-width: 3; stroke-linecap: square"/>
    <g clip-path="url(#p8f7b48d738)">
     <use xlink:href="#m1dbfd6567e" x="506.500057" y="106.709062" style="fill: #9467bd; stroke: #9467bd"/>
     <use xlink:href="#m1dbfd6567e" x="533.73036" y="167.62851" style="fill: #9467bd; stroke: #9467bd"/>
     <use xlink:href="#m1dbfd6567e" x="560.960663" y="196.665564" style="fill: #9467bd; stroke: #9467bd"/>
     <use xlink:href="#m1dbfd6567e" x="588.190966" y="211.950144" style="fill: #9467bd; stroke: #9467bd"/>
     <use xlink:href="#m1dbfd6567e" x="615.421269" y="215.032595" style="fill: #9467bd; stroke: #9467bd"/>
     <use xlink:href="#m1dbfd6567e" x="642.651572" y="221.835874" style="fill: #9467bd; stroke: #9467bd"/>
     <use xlink:href="#m1dbfd6567e" x="669.881875" y="226.468671" style="fill: #9467bd; stroke: #9467bd"/>
     <use xlink:href="#m1dbfd6567e" x="697.112178" y="222.127704" style="fill: #9467bd; stroke: #9467bd"/>
     <use xlink:href="#m1dbfd6567e" x="724.342481" y="224.115794" style="fill: #9467bd; stroke: #9467bd"/>
     <use xlink:href="#m1dbfd6567e" x="751.572784" y="221.489327" style="fill: #9467bd; stroke: #9467bd"/>
     <use xlink:href="#m1dbfd6567e" x="778.803087" y="228.839787" style="fill: #9467bd; stroke: #9467bd"/>
     <use xlink:href="#m1dbfd6567e" x="806.03339" y="226.304517" style="fill: #9467bd; stroke: #9467bd"/>
     <use xlink:href="#m1dbfd6567e" x="833.263693" y="206.040592" style="fill: #9467bd; stroke: #9467bd"/>
    </g>
   </g>
   <g id="line2d_44">
    <path d="M 506.500057 32.876151 
L 533.73036 32.876151 
L 560.960663 32.876151 
L 588.190966 32.876151 
L 615.421269 32.876151 
L 642.651572 32.876151 
L 669.881875 32.876151 
L 697.112178 32.876151 
L 724.342481 32.876151 
L 751.572784 32.876151 
L 778.803087 32.876151 
L 806.03339 32.876151 
L 833.263693 32.876151 
" clip-path="url(#p8f7b48d738)" style="fill: none; stroke-dasharray: 3,4.95; stroke-dashoffset: 0; stroke: #9467bd; stroke-width: 3"/>
    <g clip-path="url(#p8f7b48d738)">
     <use xlink:href="#m1dbfd6567e" x="506.500057" y="32.876151" style="fill: #9467bd; stroke: #9467bd"/>
     <use xlink:href="#m1dbfd6567e" x="533.73036" y="32.876151" style="fill: #9467bd; stroke: #9467bd"/>
     <use xlink:href="#m1dbfd6567e" x="560.960663" y="32.876151" style="fill: #9467bd; stroke: #9467bd"/>
     <use xlink:href="#m1dbfd6567e" x="588.190966" y="32.876151" style="fill: #9467bd; stroke: #9467bd"/>
     <use xlink:href="#m1dbfd6567e" x="615.421269" y="32.876151" style="fill: #9467bd; stroke: #9467bd"/>
     <use xlink:href="#m1dbfd6567e" x="642.651572" y="32.876151" style="fill: #9467bd; stroke: #9467bd"/>
     <use xlink:href="#m1dbfd6567e" x="669.881875" y="32.876151" style="fill: #9467bd; stroke: #9467bd"/>
     <use xlink:href="#m1dbfd6567e" x="697.112178" y="32.876151" style="fill: #9467bd; stroke: #9467bd"/>
     <use xlink:href="#m1dbfd6567e" x="724.342481" y="32.876151" style="fill: #9467bd; stroke: #9467bd"/>
     <use xlink:href="#m1dbfd6567e" x="751.572784" y="32.876151" style="fill: #9467bd; stroke: #9467bd"/>
     <use xlink:href="#m1dbfd6567e" x="778.803087" y="32.876151" style="fill: #9467bd; stroke: #9467bd"/>
     <use xlink:href="#m1dbfd6567e" x="806.03339" y="32.876151" style="fill: #9467bd; stroke: #9467bd"/>
     <use xlink:href="#m1dbfd6567e" x="833.263693" y="32.876151" style="fill: #9467bd; stroke: #9467bd"/>
    </g>
   </g>
   <g id="LineCollection_3">
    <path d="M 506.500057 106.709062 
L 506.500057 32.876151 
" clip-path="url(#p8f7b48d738)" style="fill: none; stroke-dasharray: 4.44,1.92; stroke-dashoffset: 0; stroke: #808080; stroke-width: 1.2"/>
   </g>
   <g id="LineCollection_4">
    <path d="M 833.263693 206.040592 
L 833.263693 32.876151 
" clip-path="url(#p8f7b48d738)" style="fill: none; stroke-dasharray: 4.44,1.92; stroke-dashoffset: 0; stroke: #808080; stroke-width: 1.2"/>
   </g>
   <g id="patch_9">
    <path d="M 490.161875 238.637969 
L 490.161875 23.077969 
" style="fill: none; stroke: #000000; stroke-width: 0.8; stroke-linejoin: miter; stroke-linecap: square"/>
   </g>
   <g id="patch_10">
    <path d="M 849.601875 238.637969 
L 849.601875 23.077969 
" style="fill: none; stroke: #000000; stroke-width: 0.8; stroke-linejoin: miter; stroke-linecap: square"/>
   </g>
   <g id="patch_11">
    <path d="M 490.161875 238.637969 
L 849.601875 238.637969 
" style="fill: none; stroke: #000000; stroke-width: 0.8; stroke-linejoin: miter; stroke-linecap: square"/>
   </g>
   <g id="patch_12">
    <path d="M 490.161875 23.077969 
L 849.601875 23.077969 
" style="fill: none; stroke: #000000; stroke-width: 0.8; stroke-linejoin: miter; stroke-linecap: square"/>
   </g>
   <g id="text_36">
    <!-- 1.2x -->
    <g transform="translate(513.03533 72.551981) scale(0.1 -0.1)">
     <use xlink:href="#DejaVuSans-31"/>
     <use xlink:href="#DejaVuSans-2e" x="63.623047"/>
     <use xlink:href="#DejaVuSans-32" x="95.410156"/>
     <use xlink:href="#DejaVuSans-78" x="159.033203"/>
    </g>
   </g>
   <g id="text_37">
    <!-- 1.8x -->
    <g transform="translate(800.58733 122.217747) scale(0.1 -0.1)">
     <use xlink:href="#DejaVuSans-31"/>
     <use xlink:href="#DejaVuSans-2e" x="63.623047"/>
     <use xlink:href="#DejaVuSans-38" x="95.410156"/>
     <use xlink:href="#DejaVuSans-78" x="159.033203"/>
    </g>
   </g>
   <g id="text_38">
    <!-- (b) -->
    <g transform="translate(660.683359 17.077969) scale(0.13 -0.13)">
     <use xlink:href="#DejaVuSans-28"/>
     <use xlink:href="#DejaVuSans-62" x="39.013672"/>
     <use xlink:href="#DejaVuSans-29" x="102.490234"/>
    </g>
   </g>
   <g id="legend_2">
    <g id="patch_13">
     <path d="M 616.71 147.036094 
L 723.05375 147.036094 
Q 725.05375 147.036094 725.05375 145.036094 
L 725.05375 116.679844 
Q 725.05375 114.679844 723.05375 114.679844 
L 616.71 114.679844 
Q 614.71 114.679844 614.71 116.679844 
L 614.71 145.036094 
Q 614.71 147.036094 616.71 147.036094 
z
" style="fill: #ffffff; opacity: 0.8; stroke: #cccccc; stroke-linejoin: miter"/>
    </g>
    <g id="line2d_45">
     <path d="M 618.71 122.778281 
L 628.71 122.778281 
L 638.71 122.778281 
" style="fill: none; stroke: #9467bd; stroke-width: 3; stroke-linecap: square"/>
     <g>
      <use xlink:href="#m1dbfd6567e" x="628.71" y="122.778281" style="fill: #9467bd; stroke: #9467bd"/>
     </g>
    </g>
    <g id="text_39">
     <!-- QAOA -->
     <g transform="translate(646.71 126.278281) scale(0.1 -0.1)">
      <use xlink:href="#DejaVuSans-51"/>
      <use xlink:href="#DejaVuSans-41" x="78.710938"/>
      <use xlink:href="#DejaVuSans-4f" x="145.369141"/>
      <use xlink:href="#DejaVuSans-41" x="222.330078"/>
     </g>
    </g>
    <g id="line2d_46">
     <path d="M 618.71 137.456406 
L 628.71 137.456406 
L 638.71 137.456406 
" style="fill: none; stroke-dasharray: 3,4.95; stroke-dashoffset: 0; stroke: #9467bd; stroke-width: 3"/>
     <g>
      <use xlink:href="#m1dbfd6567e" x="628.71" y="137.456406" style="fill: #9467bd; stroke: #9467bd"/>
     </g>
    </g>
    <g id="text_40">
     <!-- QAOA-baseline -->
     <g transform="translate(646.71 140.956406) scale(0.1 -0.1)">
      <use xlink:href="#DejaVuSans-51"/>
      <use xlink:href="#DejaVuSans-41" x="78.710938"/>
      <use xlink:href="#DejaVuSans-4f" x="145.369141"/>
      <use xlink:href="#DejaVuSans-41" x="222.330078"/>
      <use xlink:href="#DejaVuSans-2d" x="288.488281"/>
      <use xlink:href="#DejaVuSans-62" x="324.572266"/>
      <use xlink:href="#DejaVuSans-61" x="388.048828"/>
      <use xlink:href="#DejaVuSans-73" x="449.328125"/>
      <use xlink:href="#DejaVuSans-65" x="501.427734"/>
      <use xlink:href="#DejaVuSans-6c" x="562.951172"/>
      <use xlink:href="#DejaVuSans-69" x="590.734375"/>
      <use xlink:href="#DejaVuSans-6e" x="618.517578"/>
      <use xlink:href="#DejaVuSans-65" x="681.896484"/>
     </g>
    </g>
   </g>
  </g>
 </g>
 <defs>
  <clipPath id="pf466b0ad8d">
   <rect x="63.561875" y="23.077969" width="359.44" height="215.56"/>
  </clipPath>
  <clipPath id="p8f7b48d738">
   <rect x="490.161875" y="23.077969" width="359.44" height="215.56"/>
  </clipPath>
 </defs>
</svg>
