<?xml version="1.0" encoding="utf-8" standalone="no"?>
<!DOCTYPE svg PUBLIC "-//W3C//DTD SVG 1.1//EN"
  "http://www.w3.org/Graphics/SVG/1.1/DTD/svg11.dtd">
<svg xmlns:xlink="http://www.w3.org/1999/xlink" width="426.730625pt" height="283.633437pt" viewBox="0 0 426.730625 283.633437" xmlns="http://www.w3.org/2000/svg" version="1.1">
 <metadata>
  <rdf:RDF xmlns:dc="http://purl.org/dc/elements/1.1/" xmlns:cc="http://creativecommons.org/ns#" xmlns:rdf="http://www.w3.org/1999/02/22-rdf-syntax-ns#">
   <cc:Work>
    <dc:type rdf:resource="http://purl.org/dc/dcmitype/StillImage"/>
    <dc:date>2026-04-22T17:41:59.673376</dc:date>
    <dc:format>image/svg+xml</dc:format>
    <dc:creator>
     <cc:Agent>
      <dc:title>Matplotlib v3.9.4, https://matplotlib.org/</dc:title>
     </cc:Agent>
    </dc:creator>
   </cc:Work>
  </rdf:RDF>
 </metadata>
 <defs>
  <style type="text/css">*{stroke-linejoin: round; stroke-linecap: butt}</style>
 </defs>
 <g id="figure_1">
  <g id="patch_1">
   <path d="M 0 283.633437 
L 426.730625 283.633437 
L 426.730625 0 
L 0 0 
z
" style="fill: #ffffff"/>
  </g>
  <g id="axes_1">
   <g id="patch_2">
    <path d="M 50.890625 236.399062 
L 419.530625 236.399062 
L 419.530625 11.759062 
L 50.890625 11.759062 
z
" style="fill: #ffffff"/>
   </g>
   <g id="patch_3">
    <path d="M 67.646989 236.399062 
L 78.229955 236.399062 
L 78.229955 217.679062 
L 67.646989 217.679062 
z
" clip-path="url(#p379cc9bf20)" style="fill: #d3d3d3"/>
   </g>
   <g id="patch_4">
    <path d="M 138.200099 236.399062 
L 148.783065 236.399062 
L 148.783065 217.679062 
L 138.200099 217.679062 
z
" clip-path="url(#p379cc9bf20)" style="fill: #d3d3d3"/>
   </g>
   <g id="patch_5">
    <path d="M 208.753209 236.399062 
L 219.336175 236.399062 
L 219.336175 217.679062 
L 208.753209 217.679062 
z
" clip-path="url(#p379cc9bf20)" style="fill: #d3d3d3"/>
   </g>
   <g id="patch_6">
    <path d="M 279.306319 236.399062 
L 289.889285 236.399062 
L 289.889285 217.679062 
L 279.306319 217.679062 
z
" clip-path="url(#p379cc9bf20)" style="fill: #d3d3d3"/>
   </g>
   <g id="patch_7">
    <path d="M 349.859429 236.399062 
L 360.442395 236.399062 
L 360.442395 217.679062 
L 349.859429 217.679062 
z
" clip-path="url(#p379cc9bf20)" style="fill: #d3d3d3"/>
   </g>
   <g id="patch_8">
    <path d="M 78.229955 236.399062 
L 88.812922 236.399062 
L 88.812922 176.947634 
L 78.229955 176.947634 
z
" clip-path="url(#p379cc9bf20)" style="fill: #1f77b4"/>
   </g>
   <g id="patch_9">
    <path d="M 148.783065 236.399062 
L 159.366032 236.399062 
L 159.366032 150.94387 
L 148.783065 150.94387 
z
" clip-path="url(#p379cc9bf20)" style="fill: #1f77b4"/>
   </g>
   <g id="patch_10">
    <path d="M 219.336175 236.399062 
L 229.919142 236.399062 
L 229.919142 155.868471 
L 219.336175 155.868471 
z
" clip-path="url(#p379cc9bf20)" style="fill: #1f77b4"/>
   </g>
   <g id="patch_11">
    <path d="M 289.889285 236.399062 
L 300.472252 236.399062 
L 300.472252 94.97354 
L 289.889285 94.97354 
z
" clip-path="url(#p379cc9bf20)" style="fill: #1f77b4"/>
   </g>
   <g id="patch_12">
    <path d="M 360.442395 236.399062 
L 371.025362 236.399062 
L 371.025362 205.000903 
L 360.442395 205.000903 
z
" clip-path="url(#p379cc9bf20)" style="fill: #1f77b4"/>
   </g>
   <g id="patch_13">
    <path d="M 88.812922 236.399062 
L 99.395888 236.399062 
L 99.395888 162.161258 
L 88.812922 162.161258 
z
" clip-path="url(#p379cc9bf20)" style="fill: #ff7f0e"/>
   </g>
   <g id="patch_14">
    <path d="M 159.366032 236.399062 
L 169.948998 236.399062 
L 169.948998 145.839584 
L 159.366032 145.839584 
z
" clip-path="url(#p379cc9bf20)" style="fill: #ff7f0e"/>
   </g>
   <g id="patch_15">
    <path d="M 229.919142 236.399062 
L 240.502108 236.399062 
L 240.502108 151.211829 
L 229.919142 151.211829 
z
" clip-path="url(#p379cc9bf20)" style="fill: #ff7f0e"/>
   </g>
   <g id="patch_16">
    <path d="M 300.472252 236.399062 
L 311.055218 236.399062 
L 311.055218 88.493909 
L 300.472252 88.493909 
z
" clip-path="url(#p379cc9bf20)" style="fill: #ff7f0e"/>
   </g>
   <g id="patch_17">
    <path d="M 371.025362 236.399062 
L 381.608328 236.399062 
L 381.608328 203.752593 
L 371.025362 203.752593 
z
" clip-path="url(#p379cc9bf20)" style="fill: #ff7f0e"/>
   </g>
   <g id="patch_18">
    <path d="M 99.395888 236.399062 
L 109.978855 236.399062 
L 109.978855 166.365664 
L 99.395888 166.365664 
z
" clip-path="url(#p379cc9bf20)" style="fill: #2ca02c"/>
   </g>
   <g id="patch_19">
    <path d="M 169.948998 236.399062 
L 180.531965 236.399062 
L 180.531965 122.084416 
L 169.948998 122.084416 
z
" clip-path="url(#p379cc9bf20)" style="fill: #2ca02c"/>
   </g>
   <g id="patch_20">
    <path d="M 240.502108 236.399062 
L 251.085075 236.399062 
L 251.085075 142.797265 
L 240.502108 142.797265 
z
" clip-path="url(#p379cc9bf20)" style="fill: #2ca02c"/>
   </g>
   <g id="patch_21">
    <path d="M 311.055218 236.399062 
L 321.638185 236.399062 
L 321.638185 77.673901 
L 311.055218 77.673901 
z
" clip-path="url(#p379cc9bf20)" style="fill: #2ca02c"/>
   </g>
   <g id="patch_22">
    <path d="M 381.608328 236.399062 
L 392.191295 236.399062 
L 392.191295 200.267909 
L 381.608328 200.267909 
z
" clip-path="url(#p379cc9bf20)" style="fill: #2ca02c"/>
   </g>
   <g id="patch_23">
    <path d="M 109.978855 236.399062 
L 120.561821 236.399062 
L 120.561821 147.16063 
L 109.978855 147.16063 
z
" clip-path="url(#p379cc9bf20)" style="fill: #d62728"/>
   </g>
   <g id="patch_24">
    <path d="M 180.531965 236.399062 
L 191.114931 236.399062 
L 191.114931 99.889857 
L 180.531965 99.889857 
z
" clip-path="url(#p379cc9bf20)" style="fill: #d62728"/>
   </g>
   <g id="patch_25">
    <path d="M 251.085075 236.399062 
L 261.668041 236.399062 
L 261.668041 127.862249 
L 251.085075 127.862249 
z
" clip-path="url(#p379cc9bf20)" style="fill: #d62728"/>
   </g>
   <g id="patch_26">
    <path d="M 321.638185 236.399062 
L 332.221151 236.399062 
L 332.221151 48.037357 
L 321.638185 48.037357 
z
" clip-path="url(#p379cc9bf20)" style="fill: #d62728"/>
   </g>
   <g id="patch_27">
    <path d="M 392.191295 236.399062 
L 402.774261 236.399062 
L 402.774261 198.998804 
L 392.191295 198.998804 
z
" clip-path="url(#p379cc9bf20)" style="fill: #d62728"/>
   </g>
   <g id="matplotlib.axis_1">
    <g id="xtick_1">
     <g id="line2d_1">
      <defs>
       <path id="m2a2ff51a44" d="M 0 0 
L 0 3.5 
" style="stroke: #000000; stroke-width: 0.8"/>
      </defs>
      <g>
       <use xlink:href="#m2a2ff51a44" x="94.104405" y="236.399062" style="stroke: #000000; stroke-width: 0.8"/>
      </g>
     </g>
     <g id="text_1">
      <!-- MCT -->
      <g transform="translate(81.073155 252.517187) scale(0.12 -0.12)">
       <defs>
        <path id="DejaVuSans-4d" d="M 628 4666 
L 1569 4666 
L 2759 1491 
L 3956 4666 
L 4897 4666 
L 4897 0 
L 4281 0 
L 4281 4097 
L 3078 897 
L 2444 897 
L 1241 4097 
L 1241 0 
L 628 0 
L 628 4666 
z
" transform="scale(0.015625)"/>
        <path id="DejaVuSans-43" d="M 4122 4306 
L 4122 3641 
Q 3803 3938 3442 4084 
Q 3081 4231 2675 4231 
Q 1875 4231 1450 3742 
Q 1025 3253 1025 2328 
Q 1025 1406 1450 917 
Q 1875 428 2675 428 
Q 3081 428 3442 575 
Q 3803 722 4122 1019 
L 4122 359 
Q 3791 134 3420 21 
Q 3050 -91 2638 -91 
Q 1578 -91 968 557 
Q 359 1206 359 2328 
Q 359 3453 968 4101 
Q 1578 4750 2638 4750 
Q 3056 4750 3426 4639 
Q 3797 4528 4122 4306 
z
" transform="scale(0.015625)"/>
        <path id="DejaVuSans-54" d="M -19 4666 
L 3928 4666 
L 3928 4134 
L 2272 4134 
L 2272 0 
L 1638 0 
L 1638 4134 
L -19 4134 
L -19 4666 
z
" transform="scale(0.015625)"/>
       </defs>
       <use xlink:href="#DejaVuSans-4d"/>
       <use xlink:href="#DejaVuSans-43" x="86.279297"/>
       <use xlink:href="#DejaVuSans-54" x="156.103516"/>
      </g>
     </g>
    </g>
    <g id="xtick_2">
     <g id="line2d_2">
      <g>
       <use xlink:href="#m2a2ff51a44" x="164.657515" y="236.399062" style="stroke: #000000; stroke-width: 0.8"/>
      </g>
     </g>
     <g id="text_2">
      <!-- QFT -->
      <g transform="translate(152.923765 252.517187) scale(0.12 -0.12)">
       <defs>
        <path id="DejaVuSans-51" d="M 2522 4238 
Q 1834 4238 1429 3725 
Q 1025 3213 1025 2328 
Q 1025 1447 1429 934 
Q 1834 422 2522 422 
Q 3209 422 3611 934 
Q 4013 1447 4013 2328 
Q 4013 3213 3611 3725 
Q 3209 4238 2522 4238 
z
M 3406 84 
L 4238 -825 
L 3475 -825 
L 2784 -78 
Q 2681 -84 2626 -87 
Q 2572 -91 2522 -91 
Q 1538 -91 948 567 
Q 359 1225 359 2328 
Q 359 3434 948 4092 
Q 1538 4750 2522 4750 
Q 3503 4750 4090 4092 
Q 4678 3434 4678 2328 
Q 4678 1516 4351 937 
Q 4025 359 3406 84 
z
" transform="scale(0.015625)"/>
        <path id="DejaVuSans-46" d="M 628 4666 
L 3309 4666 
L 3309 4134 
L 1259 4134 
L 1259 2759 
L 3109 2759 
L 3109 2228 
L 1259 2228 
L 1259 0 
L 628 0 
L 628 4666 
z
" transform="scale(0.015625)"/>
       </defs>
       <use xlink:href="#DejaVuSans-51"/>
       <use xlink:href="#DejaVuSans-46" x="78.710938"/>
       <use xlink:href="#DejaVuSans-54" x="134.480469"/>
      </g>
     </g>
    </g>
    <g id="xtick_3">
     <g id="line2d_3">
      <g>
       <use xlink:href="#m2a2ff51a44" x="235.210625" y="236.399062" style="stroke: #000000; stroke-width: 0.8"/>
      </g>
     </g>
     <g id="text_3">
      <!-- Grover -->
      <g transform="translate(214.849063 252.517187) scale(0.12 -0.12)">
       <defs>
        <path id="DejaVuSans-47" d="M 3809 666 
L 3809 1919 
L 2778 1919 
L 2778 2438 
L 4434 2438 
L 4434 434 
Q 4069 175 3628 42 
Q 3188 -91 2688 -91 
Q 1594 -91 976 548 
Q 359 1188 359 2328 
Q 359 3472 976 4111 
Q 1594 4750 2688 4750 
Q 3144 4750 3555 4637 
Q 3966 4525 4313 4306 
L 4313 3634 
Q 3963 3931 3569 4081 
Q 3175 4231 2741 4231 
Q 1884 4231 1454 3753 
Q 1025 3275 1025 2328 
Q 1025 1384 1454 906 
Q 1884 428 2741 428 
Q 3075 428 3337 486 
Q 3600 544 3809 666 
z
" transform="scale(0.015625)"/>
        <path id="DejaVuSans-72" d="M 2631 2963 
Q 2534 3019 2420 3045 
Q 2306 3072 2169 3072 
Q 1681 3072 1420 2755 
Q 1159 2438 1159 1844 
L 1159 0 
L 581 0 
L 581 3500 
L 1159 3500 
L 1159 2956 
Q 1341 3275 1631 3429 
Q 1922 3584 2338 3584 
Q 2397 3584 2469 3576 
Q 2541 3569 2628 3553 
L 2631 2963 
z
" transform="scale(0.015625)"/>
        <path id="DejaVuSans-6f" d="M 1959 3097 
Q 1497 3097 1228 2736 
Q 959 2375 959 1747 
Q 959 1119 1226 758 
Q 1494 397 1959 397 
Q 2419 397 2687 759 
Q 2956 1122 2956 1747 
Q 2956 2369 2687 2733 
Q 2419 3097 1959 3097 
z
M 1959 3584 
Q 2709 3584 3137 3096 
Q 3566 2609 3566 1747 
Q 3566 888 3137 398 
Q 2709 -91 1959 -91 
Q 1206 -91 779 398 
Q 353 888 353 1747 
Q 353 2609 779 3096 
Q 1206 3584 1959 3584 
z
" transform="scale(0.015625)"/>
        <path id="DejaVuSans-76" d="M 191 3500 
L 800 3500 
L 1894 563 
L 2988 3500 
L 3597 3500 
L 2284 0 
L 1503 0 
L 191 3500 
z
" transform="scale(0.015625)"/>
        <path id="DejaVuSans-65" d="M 3597 1894 
L 3597 1613 
L 953 1613 
Q 991 1019 1311 708 
Q 1631 397 2203 397 
Q 2534 397 2845 478 
Q 3156 559 3463 722 
L 3463 178 
Q 3153 47 2828 -22 
Q 2503 -91 2169 -91 
Q 1331 -91 842 396 
Q 353 884 353 1716 
Q 353 2575 817 3079 
Q 1281 3584 2069 3584 
Q 2775 3584 3186 3129 
Q 3597 2675 3597 1894 
z
M 3022 2063 
Q 3016 2534 2758 2815 
Q 2500 3097 2075 3097 
Q 1594 3097 1305 2825 
Q 1016 2553 972 2059 
L 3022 2063 
z
" transform="scale(0.015625)"/>
       </defs>
       <use xlink:href="#DejaVuSans-47"/>
       <use xlink:href="#DejaVuSans-72" x="77.490234"/>
       <use xlink:href="#DejaVuSans-6f" x="116.353516"/>
       <use xlink:href="#DejaVuSans-76" x="177.535156"/>
       <use xlink:href="#DejaVuSans-65" x="236.714844"/>
       <use xlink:href="#DejaVuSans-72" x="298.238281"/>
      </g>
     </g>
    </g>
    <g id="xtick_4">
     <g id="line2d_4">
      <g>
       <use xlink:href="#m2a2ff51a44" x="305.763735" y="236.399062" style="stroke: #000000; stroke-width: 0.8"/>
      </g>
     </g>
     <g id="text_4">
      <!-- RCA -->
      <g transform="translate(293.60061 252.517187) scale(0.12 -0.12)">
       <defs>
        <path id="DejaVuSans-52" d="M 2841 2188 
Q 3044 2119 3236 1894 
Q 3428 1669 3622 1275 
L 4263 0 
L 3584 0 
L 2988 1197 
Q 2756 1666 2539 1819 
Q 2322 1972 1947 1972 
L 1259 1972 
L 1259 0 
L 628 0 
L 628 4666 
L 2053 4666 
Q 2853 4666 3247 4331 
Q 3641 3997 3641 3322 
Q 3641 2881 3436 2590 
Q 3231 2300 2841 2188 
z
M 1259 4147 
L 1259 2491 
L 2053 2491 
Q 2509 2491 2742 2702 
Q 2975 2913 2975 3322 
Q 2975 3731 2742 3939 
Q 2509 4147 2053 4147 
L 1259 4147 
z
" transform="scale(0.015625)"/>
        <path id="DejaVuSans-41" d="M 2188 4044 
L 1331 1722 
L 3047 1722 
L 2188 4044 
z
M 1831 4666 
L 2547 4666 
L 4325 0 
L 3669 0 
L 3244 1197 
L 1141 1197 
L 716 0 
L 50 0 
L 1831 4666 
z
" transform="scale(0.015625)"/>
       </defs>
       <use xlink:href="#DejaVuSans-52"/>
       <use xlink:href="#DejaVuSans-43" x="64.482422"/>
       <use xlink:href="#DejaVuSans-41" x="134.306641"/>
      </g>
     </g>
    </g>
    <g id="xtick_5">
     <g id="line2d_5">
      <g>
       <use xlink:href="#m2a2ff51a44" x="376.316845" y="236.399062" style="stroke: #000000; stroke-width: 0.8"/>
      </g>
     </g>
     <g id="text_5">
      <!-- QAOA -->
      <g transform="translate(358.871845 252.517187) scale(0.12 -0.12)">
       <defs>
        <path id="DejaVuSans-4f" d="M 2522 4238 
Q 1834 4238 1429 3725 
Q 1025 3213 1025 2328 
Q 1025 1447 1429 934 
Q 1834 422 2522 422 
Q 3209 422 3611 934 
Q 4013 1447 4013 2328 
Q 4013 3213 3611 3725 
Q 3209 4238 2522 4238 
z
M 2522 4750 
Q 3503 4750 4090 4092 
Q 4678 3434 4678 2328 
Q 4678 1225 4090 567 
Q 3503 -91 2522 -91 
Q 1538 -91 948 565 
Q 359 1222 359 2328 
Q 359 3434 948 4092 
Q 1538 4750 2522 4750 
z
" transform="scale(0.015625)"/>
       </defs>
       <use xlink:href="#DejaVuSans-51"/>
       <use xlink:href="#DejaVuSans-41" x="78.710938"/>
       <use xlink:href="#DejaVuSans-4f" x="145.369141"/>
       <use xlink:href="#DejaVuSans-41" x="222.330078"/>
      </g>
     </g>
    </g>
    <g id="text_6">
     <!-- Benchmark -->
     <g transform="translate(183.948594 272.69) scale(0.18 -0.18)">
      <defs>
       <path id="DejaVuSans-42" d="M 1259 2228 
L 1259 519 
L 2272 519 
Q 2781 519 3026 730 
Q 3272 941 3272 1375 
Q 3272 1813 3026 2020 
Q 2781 2228 2272 2228 
L 1259 2228 
z
M 1259 4147 
L 1259 2741 
L 2194 2741 
Q 2656 2741 2882 2914 
Q 3109 3088 3109 3444 
Q 3109 3797 2882 3972 
Q 2656 4147 2194 4147 
L 1259 4147 
z
M 628 4666 
L 2241 4666 
Q 2963 4666 3353 4366 
Q 3744 4066 3744 3513 
Q 3744 3084 3544 2831 
Q 3344 2578 2956 2516 
Q 3422 2416 3680 2098 
Q 3938 1781 3938 1306 
Q 3938 681 3513 340 
Q 3088 0 2303 0 
L 628 0 
L 628 4666 
z
" transform="scale(0.015625)"/>
       <path id="DejaVuSans-6e" d="M 3513 2113 
L 3513 0 
L 2938 0 
L 2938 2094 
Q 2938 2591 2744 2837 
Q 2550 3084 2163 3084 
Q 1697 3084 1428 2787 
Q 1159 2491 1159 1978 
L 1159 0 
L 581 0 
L 581 3500 
L 1159 3500 
L 1159 2956 
Q 1366 3272 1645 3428 
Q 1925 3584 2291 3584 
Q 2894 3584 3203 3211 
Q 3513 2838 3513 2113 
z
" transform="scale(0.015625)"/>
       <path id="DejaVuSans-63" d="M 3122 3366 
L 3122 2828 
Q 2878 2963 2633 3030 
Q 2388 3097 2138 3097 
Q 1578 3097 1268 2742 
Q 959 2388 959 1747 
Q 959 1106 1268 751 
Q 1578 397 2138 397 
Q 2388 397 2633 464 
Q 2878 531 3122 666 
L 3122 134 
Q 2881 22 2623 -34 
Q 2366 -91 2075 -91 
Q 1284 -91 818 406 
Q 353 903 353 1747 
Q 353 2603 823 3093 
Q 1294 3584 2113 3584 
Q 2378 3584 2631 3529 
Q 2884 3475 3122 3366 
z
" transform="scale(0.015625)"/>
       <path id="DejaVuSans-68" d="M 3513 2113 
L 3513 0 
L 2938 0 
L 2938 2094 
Q 2938 2591 2744 2837 
Q 2550 3084 2163 3084 
Q 1697 3084 1428 2787 
Q 1159 2491 1159 1978 
L 1159 0 
L 581 0 
L 581 4863 
L 1159 4863 
L 1159 2956 
Q 1366 3272 1645 3428 
Q 1925 3584 2291 3584 
Q 2894 3584 3203 3211 
Q 3513 2838 3513 2113 
z
" transform="scale(0.015625)"/>
       <path id="DejaVuSans-6d" d="M 3328 2828 
Q 3544 3216 3844 3400 
Q 4144 3584 4550 3584 
Q 5097 3584 5394 3201 
Q 5691 2819 5691 2113 
L 5691 0 
L 5113 0 
L 5113 2094 
Q 5113 2597 4934 2840 
Q 4756 3084 4391 3084 
Q 3944 3084 3684 2787 
Q 3425 2491 3425 1978 
L 3425 0 
L 2847 0 
L 2847 2094 
Q 2847 2600 2669 2842 
Q 2491 3084 2119 3084 
Q 1678 3084 1418 2786 
Q 1159 2488 1159 1978 
L 1159 0 
L 581 0 
L 581 3500 
L 1159 3500 
L 1159 2956 
Q 1356 3278 1631 3431 
Q 1906 3584 2284 3584 
Q 2666 3584 2933 3390 
Q 3200 3197 3328 2828 
z
" transform="scale(0.015625)"/>
       <path id="DejaVuSans-61" d="M 2194 1759 
Q 1497 1759 1228 1600 
Q 959 1441 959 1056 
Q 959 750 1161 570 
Q 1363 391 1709 391 
Q 2188 391 2477 730 
Q 2766 1069 2766 1631 
L 2766 1759 
L 2194 1759 
z
M 3341 1997 
L 3341 0 
L 2766 0 
L 2766 531 
Q 2569 213 2275 61 
Q 1981 -91 1556 -91 
Q 1019 -91 701 211 
Q 384 513 384 1019 
Q 384 1609 779 1909 
Q 1175 2209 1959 2209 
L 2766 2209 
L 2766 2266 
Q 2766 2663 2505 2880 
Q 2244 3097 1772 3097 
Q 1472 3097 1187 3025 
Q 903 2953 641 2809 
L 641 3341 
Q 956 3463 1253 3523 
Q 1550 3584 1831 3584 
Q 2591 3584 2966 3190 
Q 3341 2797 3341 1997 
z
" transform="scale(0.015625)"/>
       <path id="DejaVuSans-6b" d="M 581 4863 
L 1159 4863 
L 1159 1991 
L 2875 3500 
L 3609 3500 
L 1753 1863 
L 3688 0 
L 2938 0 
L 1159 1709 
L 1159 0 
L 581 0 
L 581 4863 
z
" transform="scale(0.015625)"/>
      </defs>
      <use xlink:href="#DejaVuSans-42"/>
      <use xlink:href="#DejaVuSans-65" x="68.603516"/>
      <use xlink:href="#DejaVuSans-6e" x="130.126953"/>
      <use xlink:href="#DejaVuSans-63" x="193.505859"/>
      <use xlink:href="#DejaVuSans-68" x="248.486328"/>
      <use xlink:href="#DejaVuSans-6d" x="311.865234"/>
      <use xlink:href="#DejaVuSans-61" x="409.277344"/>
      <use xlink:href="#DejaVuSans-72" x="470.556641"/>
      <use xlink:href="#DejaVuSans-6b" x="511.669922"/>
     </g>
    </g>
   </g>
   <g id="matplotlib.axis_2">
    <g id="ytick_1">
     <g id="line2d_6">
      <defs>
       <path id="m15bfac1c8e" d="M 0 0 
L -3.5 0 
" style="stroke: #000000; stroke-width: 0.8"/>
      </defs>
      <g>
       <use xlink:href="#m15bfac1c8e" x="50.890625" y="236.399062" style="stroke: #000000; stroke-width: 0.8"/>
      </g>
     </g>
     <g id="text_7">
      <!-- 0 -->
      <g transform="translate(36.255625 240.958125) scale(0.12 -0.12)">
       <defs>
        <path id="DejaVuSans-30" d="M 2034 4250 
Q 1547 4250 1301 3770 
Q 1056 3291 1056 2328 
Q 1056 1369 1301 889 
Q 1547 409 2034 409 
Q 2525 409 2770 889 
Q 3016 1369 3016 2328 
Q 3016 3291 2770 3770 
Q 2525 4250 2034 4250 
z
M 2034 4750 
Q 2819 4750 3233 4129 
Q 3647 3509 3647 2328 
Q 3647 1150 3233 529 
Q 2819 -91 2034 -91 
Q 1250 -91 836 529 
Q 422 1150 422 2328 
Q 422 3509 836 4129 
Q 1250 4750 2034 4750 
z
" transform="scale(0.015625)"/>
       </defs>
       <use xlink:href="#DejaVuSans-30"/>
      </g>
     </g>
    </g>
    <g id="ytick_2">
     <g id="line2d_7">
      <g>
       <use xlink:href="#m15bfac1c8e" x="50.890625" y="198.959062" style="stroke: #000000; stroke-width: 0.8"/>
      </g>
     </g>
     <g id="text_8">
      <!-- 2 -->
      <g transform="translate(36.255625 203.518125) scale(0.12 -0.12)">
       <defs>
        <path id="DejaVuSans-32" d="M 1228 531 
L 3431 531 
L 3431 0 
L 469 0 
L 469 531 
Q 828 903 1448 1529 
Q 2069 2156 2228 2338 
Q 2531 2678 2651 2914 
Q 2772 3150 2772 3378 
Q 2772 3750 2511 3984 
Q 2250 4219 1831 4219 
Q 1534 4219 1204 4116 
Q 875 4013 500 3803 
L 500 4441 
Q 881 4594 1212 4672 
Q 1544 4750 1819 4750 
Q 2544 4750 2975 4387 
Q 3406 4025 3406 3419 
Q 3406 3131 3298 2873 
Q 3191 2616 2906 2266 
Q 2828 2175 2409 1742 
Q 1991 1309 1228 531 
z
" transform="scale(0.015625)"/>
       </defs>
       <use xlink:href="#DejaVuSans-32"/>
      </g>
     </g>
    </g>
    <g id="ytick_3">
     <g id="line2d_8">
      <g>
       <use xlink:href="#m15bfac1c8e" x="50.890625" y="161.519062" style="stroke: #000000; stroke-width: 0.8"/>
      </g>
     </g>
     <g id="text_9">
      <!-- 4 -->
      <g transform="translate(36.255625 166.078125) scale(0.12 -0.12)">
       <defs>
        <path id="DejaVuSans-34" d="M 2419 4116 
L 825 1625 
L 2419 1625 
L 2419 4116 
z
M 2253 4666 
L 3047 4666 
L 3047 1625 
L 3713 1625 
L 3713 1100 
L 3047 1100 
L 3047 0 
L 2419 0 
L 2419 1100 
L 313 1100 
L 313 1709 
L 2253 4666 
z
" transform="scale(0.015625)"/>
       </defs>
       <use xlink:href="#DejaVuSans-34"/>
      </g>
     </g>
    </g>
    <g id="ytick_4">
     <g id="line2d_9">
      <g>
       <use xlink:href="#m15bfac1c8e" x="50.890625" y="124.079062" style="stroke: #000000; stroke-width: 0.8"/>
      </g>
     </g>
     <g id="text_10">
      <!-- 6 -->
      <g transform="translate(36.255625 128.638125) scale(0.12 -0.12)">
       <defs>
        <path id="DejaVuSans-36" d="M 2113 2584 
Q 1688 2584 1439 2293 
Q 1191 2003 1191 1497 
Q 1191 994 1439 701 
Q 1688 409 2113 409 
Q 2538 409 2786 701 
Q 3034 994 3034 1497 
Q 3034 2003 2786 2293 
Q 2538 2584 2113 2584 
z
M 3366 4563 
L 3366 3988 
Q 3128 4100 2886 4159 
Q 2644 4219 2406 4219 
Q 1781 4219 1451 3797 
Q 1122 3375 1075 2522 
Q 1259 2794 1537 2939 
Q 1816 3084 2150 3084 
Q 2853 3084 3261 2657 
Q 3669 2231 3669 1497 
Q 3669 778 3244 343 
Q 2819 -91 2113 -91 
Q 1303 -91 875 529 
Q 447 1150 447 2328 
Q 447 3434 972 4092 
Q 1497 4750 2381 4750 
Q 2619 4750 2861 4703 
Q 3103 4656 3366 4563 
z
" transform="scale(0.015625)"/>
       </defs>
       <use xlink:href="#DejaVuSans-36"/>
      </g>
     </g>
    </g>
    <g id="ytick_5">
     <g id="line2d_10">
      <g>
       <use xlink:href="#m15bfac1c8e" x="50.890625" y="86.639062" style="stroke: #000000; stroke-width: 0.8"/>
      </g>
     </g>
     <g id="text_11">
      <!-- 8 -->
      <g transform="translate(36.255625 91.198125) scale(0.12 -0.12)">
       <defs>
        <path id="DejaVuSans-38" d="M 2034 2216 
Q 1584 2216 1326 1975 
Q 1069 1734 1069 1313 
Q 1069 891 1326 650 
Q 1584 409 2034 409 
Q 2484 409 2743 651 
Q 3003 894 3003 1313 
Q 3003 1734 2745 1975 
Q 2488 2216 2034 2216 
z
M 1403 2484 
Q 997 2584 770 2862 
Q 544 3141 544 3541 
Q 544 4100 942 4425 
Q 1341 4750 2034 4750 
Q 2731 4750 3128 4425 
Q 3525 4100 3525 3541 
Q 3525 3141 3298 2862 
Q 3072 2584 2669 2484 
Q 3125 2378 3379 2068 
Q 3634 1759 3634 1313 
Q 3634 634 3220 271 
Q 2806 -91 2034 -91 
Q 1263 -91 848 271 
Q 434 634 434 1313 
Q 434 1759 690 2068 
Q 947 2378 1403 2484 
z
M 1172 3481 
Q 1172 3119 1398 2916 
Q 1625 2713 2034 2713 
Q 2441 2713 2670 2916 
Q 2900 3119 2900 3481 
Q 2900 3844 2670 4047 
Q 2441 4250 2034 4250 
Q 1625 4250 1398 4047 
Q 1172 3844 1172 3481 
z
" transform="scale(0.015625)"/>
       </defs>
       <use xlink:href="#DejaVuSans-38"/>
      </g>
     </g>
    </g>
    <g id="ytick_6">
     <g id="line2d_11">
      <g>
       <use xlink:href="#m15bfac1c8e" x="50.890625" y="49.199062" style="stroke: #000000; stroke-width: 0.8"/>
      </g>
     </g>
     <g id="text_12">
      <!-- 10 -->
      <g transform="translate(28.620625 53.758125) scale(0.12 -0.12)">
       <defs>
        <path id="DejaVuSans-31" d="M 794 531 
L 1825 531 
L 1825 4091 
L 703 3866 
L 703 4441 
L 1819 4666 
L 2450 4666 
L 2450 531 
L 3481 531 
L 3481 0 
L 794 0 
L 794 531 
z
" transform="scale(0.015625)"/>
       </defs>
       <use xlink:href="#DejaVuSans-31"/>
       <use xlink:href="#DejaVuSans-30" x="63.623047"/>
      </g>
     </g>
    </g>
    <g id="ytick_7">
     <g id="line2d_12">
      <g>
       <use xlink:href="#m15bfac1c8e" x="50.890625" y="11.759062" style="stroke: #000000; stroke-width: 0.8"/>
      </g>
     </g>
     <g id="text_13">
      <!-- 12 -->
      <g transform="translate(28.620625 16.318125) scale(0.12 -0.12)">
       <use xlink:href="#DejaVuSans-31"/>
       <use xlink:href="#DejaVuSans-32" x="63.623047"/>
      </g>
     </g>
    </g>
    <g id="text_14">
     <!-- Improve Factor -->
     <g transform="translate(20.877187 191.4975) rotate(-90) scale(0.18 -0.18)">
      <defs>
       <path id="DejaVuSans-49" d="M 628 4666 
L 1259 4666 
L 1259 0 
L 628 0 
L 628 4666 
z
" transform="scale(0.015625)"/>
       <path id="DejaVuSans-70" d="M 1159 525 
L 1159 -1331 
L 581 -1331 
L 581 3500 
L 1159 3500 
L 1159 2969 
Q 1341 3281 1617 3432 
Q 1894 3584 2278 3584 
Q 2916 3584 3314 3078 
Q 3713 2572 3713 1747 
Q 3713 922 3314 415 
Q 2916 -91 2278 -91 
Q 1894 -91 1617 61 
Q 1341 213 1159 525 
z
M 3116 1747 
Q 3116 2381 2855 2742 
Q 2594 3103 2138 3103 
Q 1681 3103 1420 2742 
Q 1159 2381 1159 1747 
Q 1159 1113 1420 752 
Q 1681 391 2138 391 
Q 2594 391 2855 752 
Q 3116 1113 3116 1747 
z
" transform="scale(0.015625)"/>
       <path id="DejaVuSans-20" transform="scale(0.015625)"/>
       <path id="DejaVuSans-74" d="M 1172 4494 
L 1172 3500 
L 2356 3500 
L 2356 3053 
L 1172 3053 
L 1172 1153 
Q 1172 725 1289 603 
Q 1406 481 1766 481 
L 2356 481 
L 2356 0 
L 1766 0 
Q 1100 0 847 248 
Q 594 497 594 1153 
L 594 3053 
L 172 3053 
L 172 3500 
L 594 3500 
L 594 4494 
L 1172 4494 
z
" transform="scale(0.015625)"/>
      </defs>
      <use xlink:href="#DejaVuSans-49"/>
      <use xlink:href="#DejaVuSans-6d" x="29.492188"/>
      <use xlink:href="#DejaVuSans-70" x="126.904297"/>
      <use xlink:href="#DejaVuSans-72" x="190.380859"/>
      <use xlink:href="#DejaVuSans-6f" x="229.244141"/>
      <use xlink:href="#DejaVuSans-76" x="290.425781"/>
      <use xlink:href="#DejaVuSans-65" x="349.605469"/>
      <use xlink:href="#DejaVuSans-20" x="411.128906"/>
      <use xlink:href="#DejaVuSans-46" x="442.916016"/>
      <use xlink:href="#DejaVuSans-61" x="491.310547"/>
      <use xlink:href="#DejaVuSans-63" x="552.589844"/>
      <use xlink:href="#DejaVuSans-74" x="607.570312"/>
      <use xlink:href="#DejaVuSans-6f" x="646.779297"/>
      <use xlink:href="#DejaVuSans-72" x="707.960938"/>
     </g>
    </g>
   </g>
   <g id="line2d_13">
    <path d="M 50.890625 217.679062 
L 419.530625 217.679062 
" clip-path="url(#p379cc9bf20)" style="fill: none; stroke-dasharray: 3.7,1.6; stroke-dashoffset: 0; stroke: #808080"/>
   </g>
   <g id="patch_28">
    <path d="M 50.890625 236.399062 
L 50.890625 11.759062 
" style="fill: none; stroke: #000000; stroke-width: 0.8; stroke-linejoin: miter; stroke-linecap: square"/>
   </g>
   <g id="patch_29">
    <path d="M 419.530625 236.399062 
L 419.530625 11.759062 
" style="fill: none; stroke: #000000; stroke-width: 0.8; stroke-linejoin: miter; stroke-linecap: square"/>
   </g>
   <g id="patch_30">
    <path d="M 50.890625 236.399062 
L 419.530625 236.399062 
" style="fill: none; stroke: #000000; stroke-width: 0.8; stroke-linejoin: miter; stroke-linecap: square"/>
   </g>
   <g id="patch_31">
    <path d="M 50.890625 11.759062 
L 419.530625 11.759062 
" style="fill: none; stroke: #000000; stroke-width: 0.8; stroke-linejoin: miter; stroke-linecap: square"/>
   </g>
   <g id="legend_1">
    <g id="patch_32">
     <path d="M 57.890625 93.149687 
L 218.13125 93.149687 
Q 220.13125 93.149687 220.13125 91.149687 
L 220.13125 18.759062 
Q 220.13125 16.759062 218.13125 16.759062 
L 57.890625 16.759062 
Q 55.890625 16.759062 55.890625 18.759062 
L 55.890625 91.149687 
Q 55.890625 93.149687 57.890625 93.149687 
z
" style="fill: #ffffff; opacity: 0.8; stroke: #cccccc; stroke-linejoin: miter"/>
    </g>
    <g id="patch_33">
     <path d="M 59.890625 28.3575 
L 79.890625 28.3575 
L 79.890625 21.3575 
L 59.890625 21.3575 
z
" style="fill: #d3d3d3"/>
    </g>
    <g id="text_15">
     <!-- Baseline -->
     <g transform="translate(87.890625 28.3575) scale(0.1 -0.1)">
      <defs>
       <path id="DejaVuSans-73" d="M 2834 3397 
L 2834 2853 
Q 2591 2978 2328 3040 
Q 2066 3103 1784 3103 
Q 1356 3103 1142 2972 
Q 928 2841 928 2578 
Q 928 2378 1081 2264 
Q 1234 2150 1697 2047 
L 1894 2003 
Q 2506 1872 2764 1633 
Q 3022 1394 3022 966 
Q 3022 478 2636 193 
Q 2250 -91 1575 -91 
Q 1294 -91 989 -36 
Q 684 19 347 128 
L 347 722 
Q 666 556 975 473 
Q 1284 391 1588 391 
Q 1994 391 2212 530 
Q 2431 669 2431 922 
Q 2431 1156 2273 1281 
Q 2116 1406 1581 1522 
L 1381 1569 
Q 847 1681 609 1914 
Q 372 2147 372 2553 
Q 372 3047 722 3315 
Q 1072 3584 1716 3584 
Q 2034 3584 2315 3537 
Q 2597 3491 2834 3397 
z
" transform="scale(0.015625)"/>
       <path id="DejaVuSans-6c" d="M 603 4863 
L 1178 4863 
L 1178 0 
L 603 0 
L 603 4863 
z
" transform="scale(0.015625)"/>
       <path id="DejaVuSans-69" d="M 603 3500 
L 1178 3500 
L 1178 0 
L 603 0 
L 603 3500 
z
M 603 4863 
L 1178 4863 
L 1178 4134 
L 603 4134 
L 603 4863 
z
" transform="scale(0.015625)"/>
      </defs>
      <use xlink:href="#DejaVuSans-42"/>
      <use xlink:href="#DejaVuSans-61" x="68.603516"/>
      <use xlink:href="#DejaVuSans-73" x="129.882812"/>
      <use xlink:href="#DejaVuSans-65" x="181.982422"/>
      <use xlink:href="#DejaVuSans-6c" x="243.505859"/>
      <use xlink:href="#DejaVuSans-69" x="271.289062"/>
      <use xlink:href="#DejaVuSans-6e" x="299.072266"/>
      <use xlink:href="#DejaVuSans-65" x="362.451172"/>
     </g>
    </g>
    <g id="patch_34">
     <path d="M 59.890625 43.035625 
L 79.890625 43.035625 
L 79.890625 36.035625 
L 59.890625 36.035625 
z
" style="fill: #1f77b4"/>
    </g>
    <g id="text_16">
     <!-- Look Ahead -->
     <g transform="translate(87.890625 43.035625) scale(0.1 -0.1)">
      <defs>
       <path id="DejaVuSans-4c" d="M 628 4666 
L 1259 4666 
L 1259 531 
L 3531 531 
L 3531 0 
L 628 0 
L 628 4666 
z
" transform="scale(0.015625)"/>
       <path id="DejaVuSans-64" d="M 2906 2969 
L 2906 4863 
L 3481 4863 
L 3481 0 
L 2906 0 
L 2906 525 
Q 2725 213 2448 61 
Q 2172 -91 1784 -91 
Q 1150 -91 751 415 
Q 353 922 353 1747 
Q 353 2572 751 3078 
Q 1150 3584 1784 3584 
Q 2172 3584 2448 3432 
Q 2725 3281 2906 2969 
z
M 947 1747 
Q 947 1113 1208 752 
Q 1469 391 1925 391 
Q 2381 391 2643 752 
Q 2906 1113 2906 1747 
Q 2906 2381 2643 2742 
Q 2381 3103 1925 3103 
Q 1469 3103 1208 2742 
Q 947 2381 947 1747 
z
" transform="scale(0.015625)"/>
      </defs>
      <use xlink:href="#DejaVuSans-4c"/>
      <use xlink:href="#DejaVuSans-6f" x="53.962891"/>
      <use xlink:href="#DejaVuSans-6f" x="115.144531"/>
      <use xlink:href="#DejaVuSans-6b" x="176.326172"/>
      <use xlink:href="#DejaVuSans-20" x="234.236328"/>
      <use xlink:href="#DejaVuSans-41" x="266.023438"/>
      <use xlink:href="#DejaVuSans-68" x="334.431641"/>
      <use xlink:href="#DejaVuSans-65" x="397.810547"/>
      <use xlink:href="#DejaVuSans-61" x="459.333984"/>
      <use xlink:href="#DejaVuSans-64" x="520.613281"/>
     </g>
    </g>
    <g id="patch_35">
     <path d="M 59.890625 57.71375 
L 79.890625 57.71375 
L 79.890625 50.71375 
L 59.890625 50.71375 
z
" style="fill: #ff7f0e"/>
    </g>
    <g id="text_17">
     <!-- Look Ahead + Join -->
     <g transform="translate(87.890625 57.71375) scale(0.1 -0.1)">
      <defs>
       <path id="DejaVuSans-2b" d="M 2944 4013 
L 2944 2272 
L 4684 2272 
L 4684 1741 
L 2944 1741 
L 2944 0 
L 2419 0 
L 2419 1741 
L 678 1741 
L 678 2272 
L 2419 2272 
L 2419 4013 
L 2944 4013 
z
" transform="scale(0.015625)"/>
       <path id="DejaVuSans-4a" d="M 628 4666 
L 1259 4666 
L 1259 325 
Q 1259 -519 939 -900 
Q 619 -1281 -91 -1281 
L -331 -1281 
L -331 -750 
L -134 -750 
Q 284 -750 456 -515 
Q 628 -281 628 325 
L 628 4666 
z
" transform="scale(0.015625)"/>
      </defs>
      <use xlink:href="#DejaVuSans-4c"/>
      <use xlink:href="#DejaVuSans-6f" x="53.962891"/>
      <use xlink:href="#DejaVuSans-6f" x="115.144531"/>
      <use xlink:href="#DejaVuSans-6b" x="176.326172"/>
      <use xlink:href="#DejaVuSans-20" x="234.236328"/>
      <use xlink:href="#DejaVuSans-41" x="266.023438"/>
      <use xlink:href="#DejaVuSans-68" x="334.431641"/>
      <use xlink:href="#DejaVuSans-65" x="397.810547"/>
      <use xlink:href="#DejaVuSans-61" x="459.333984"/>
      <use xlink:href="#DejaVuSans-64" x="520.613281"/>
      <use xlink:href="#DejaVuSans-20" x="584.089844"/>
      <use xlink:href="#DejaVuSans-2b" x="615.876953"/>
      <use xlink:href="#DejaVuSans-20" x="699.666016"/>
      <use xlink:href="#DejaVuSans-4a" x="731.453125"/>
      <use xlink:href="#DejaVuSans-6f" x="760.945312"/>
      <use xlink:href="#DejaVuSans-69" x="822.126953"/>
      <use xlink:href="#DejaVuSans-6e" x="849.910156"/>
     </g>
    </g>
    <g id="patch_36">
     <path d="M 59.890625 72.391875 
L 79.890625 72.391875 
L 79.890625 65.391875 
L 59.890625 65.391875 
z
" style="fill: #2ca02c"/>
    </g>
    <g id="text_18">
     <!-- Look Ahead + Split -->
     <g transform="translate(87.890625 72.391875) scale(0.1 -0.1)">
      <defs>
       <path id="DejaVuSans-53" d="M 3425 4513 
L 3425 3897 
Q 3066 4069 2747 4153 
Q 2428 4238 2131 4238 
Q 1616 4238 1336 4038 
Q 1056 3838 1056 3469 
Q 1056 3159 1242 3001 
Q 1428 2844 1947 2747 
L 2328 2669 
Q 3034 2534 3370 2195 
Q 3706 1856 3706 1288 
Q 3706 609 3251 259 
Q 2797 -91 1919 -91 
Q 1588 -91 1214 -16 
Q 841 59 441 206 
L 441 856 
Q 825 641 1194 531 
Q 1563 422 1919 422 
Q 2459 422 2753 634 
Q 3047 847 3047 1241 
Q 3047 1584 2836 1778 
Q 2625 1972 2144 2069 
L 1759 2144 
Q 1053 2284 737 2584 
Q 422 2884 422 3419 
Q 422 4038 858 4394 
Q 1294 4750 2059 4750 
Q 2388 4750 2728 4690 
Q 3069 4631 3425 4513 
z
" transform="scale(0.015625)"/>
      </defs>
      <use xlink:href="#DejaVuSans-4c"/>
      <use xlink:href="#DejaVuSans-6f" x="53.962891"/>
      <use xlink:href="#DejaVuSans-6f" x="115.144531"/>
      <use xlink:href="#DejaVuSans-6b" x="176.326172"/>
      <use xlink:href="#DejaVuSans-20" x="234.236328"/>
      <use xlink:href="#DejaVuSans-41" x="266.023438"/>
      <use xlink:href="#DejaVuSans-68" x="334.431641"/>
      <use xlink:href="#DejaVuSans-65" x="397.810547"/>
      <use xlink:href="#DejaVuSans-61" x="459.333984"/>
      <use xlink:href="#DejaVuSans-64" x="520.613281"/>
      <use xlink:href="#DejaVuSans-20" x="584.089844"/>
      <use xlink:href="#DejaVuSans-2b" x="615.876953"/>
      <use xlink:href="#DejaVuSans-20" x="699.666016"/>
      <use xlink:href="#DejaVuSans-53" x="731.453125"/>
      <use xlink:href="#DejaVuSans-70" x="794.929688"/>
      <use xlink:href="#DejaVuSans-6c" x="858.40625"/>
      <use xlink:href="#DejaVuSans-69" x="886.189453"/>
      <use xlink:href="#DejaVuSans-74" x="913.972656"/>
     </g>
    </g>
    <g id="patch_37">
     <path d="M 59.890625 87.07 
L 79.890625 87.07 
L 79.890625 80.07 
L 59.890625 80.07 
z
" style="fill: #d62728"/>
    </g>
    <g id="text_19">
     <!-- Look Ahead + Join + Split -->
     <g transform="translate(87.890625 87.07) scale(0.1 -0.1)">
      <use xlink:href="#DejaVuSans-4c"/>
      <use xlink:href="#DejaVuSans-6f" x="53.962891"/>
      <use xlink:href="#DejaVuSans-6f" x="115.144531"/>
      <use xlink:href="#DejaVuSans-6b" x="176.326172"/>
      <use xlink:href="#DejaVuSans-20" x="234.236328"/>
      <use xlink:href="#DejaVuSans-41" x="266.023438"/>
      <use xlink:href="#DejaVuSans-68" x="334.431641"/>
      <use xlink:href="#DejaVuSans-65" x="397.810547"/>
      <use xlink:href="#DejaVuSans-61" x="459.333984"/>
      <use xlink:href="#DejaVuSans-64" x="520.613281"/>
      <use xlink:href="#DejaVuSans-20" x="584.089844"/>
      <use xlink:href="#DejaVuSans-2b" x="615.876953"/>
      <use xlink:href="#DejaVuSans-20" x="699.666016"/>
      <use xlink:href="#DejaVuSans-4a" x="731.453125"/>
      <use xlink:href="#DejaVuSans-6f" x="760.945312"/>
      <use xlink:href="#DejaVuSans-69" x="822.126953"/>
      <use xlink:href="#DejaVuSans-6e" x="849.910156"/>
      <use xlink:href="#DejaVuSans-20" x="913.289062"/>
      <use xlink:href="#DejaVuSans-2b" x="945.076172"/>
      <use xlink:href="#DejaVuSans-20" x="1028.865234"/>
      <use xlink:href="#DejaVuSans-53" x="1060.652344"/>
      <use xlink:href="#DejaVuSans-70" x="1124.128906"/>
      <use xlink:href="#DejaVuSans-6c" x="1187.605469"/>
      <use xlink:href="#DejaVuSans-69" x="1215.388672"/>
      <use xlink:href="#DejaVuSans-74" x="1243.171875"/>
     </g>
    </g>
   </g>
  </g>
 </g>
 <defs>
  <clipPath id="p379cc9bf20">
   <rect x="50.890625" y="11.759062" width="368.64" height="224.64"/>
  </clipPath>
 </defs>
</svg>
